<?xml version="1.0" encoding="UTF-8" standalone="no"?>
<svg
   id="e613b765-a21b-4502-9325-e6e5b4d66d88"
   data-name="Layer 1"
   width="929.54484"
   height="793.07015"
   viewBox="0 0 929.54484 793.07015"
   version="1.1"
   sodipodi:docname="undraw_folder.svg"
   inkscape:version="1.1.2 (0a00cf5339, 2022-02-04)"
   xmlns:inkscape="http://www.inkscape.org/namespaces/inkscape"
   xmlns:sodipodi="http://sodipodi.sourceforge.net/DTD/sodipodi-0.dtd"
   xmlns="http://www.w3.org/2000/svg"
   xmlns:svg="http://www.w3.org/2000/svg"
   xmlns:rdf="http://www.w3.org/1999/02/22-rdf-syntax-ns#"
   xmlns:cc="http://creativecommons.org/ns#"
   xmlns:dc="http://purl.org/dc/elements/1.1/">
  <metadata
     id="metadata155">
    <rdf:RDF>
      <cc:Work
         rdf:about="">
        <dc:format>image/svg+xml</dc:format>
        <dc:type
           rdf:resource="http://purl.org/dc/dcmitype/StillImage" />
        <dc:title>folder</dc:title>
      </cc:Work>
    </rdf:RDF>
  </metadata>
  <defs
     id="defs153" />
  <sodipodi:namedview
     pagecolor="#ffffff"
     bordercolor="#666666"
     borderopacity="1"
     objecttolerance="10"
     gridtolerance="10"
     guidetolerance="10"
     inkscape:pageopacity="0"
     inkscape:pageshadow="2"
     inkscape:window-width="1920"
     inkscape:window-height="1016"
     id="namedview151"
     showgrid="false"
     inkscape:zoom="0.90509668"
     inkscape:cx="27.621359"
     inkscape:cy="344.71456"
     inkscape:window-x="0"
     inkscape:window-y="0"
     inkscape:window-maximized="1"
     inkscape:current-layer="e613b765-a21b-4502-9325-e6e5b4d66d88"
     inkscape:pagecheckerboard="0" />
  <title
     id="title2">folder</title>
  <path
     d="m 793.83585,490.76514 c -0.12535,9.80433 -0.57432,20.78868 -1.58107,32.36175 l 28.24102,-35.21389 0.19857,0.55084 a 88.087992,88.087992 0 0 0 -10.15956,-22.52217 l 0.22356,0.51824 z"
     fill="#57b894"
     id="path4"
     style="stroke-width:0.828488;fill:#40bf61;fill-opacity:1" />
  <path
     d="m 793.85477,489.04518 16.39272,-23.54356 c -4.71286,-7.10014 -10.35705,-12.59758 -16.80349,-15.95088 -0.33535,-0.17446 -0.67185,-0.33711 -1.00834,-0.49838 0.25056,2.65404 1.61759,18.24108 1.41911,39.99282 z"
     fill="#57b894"
     id="path6"
     style="stroke-width:0.828488;fill:#40bf61;fill-opacity:1" />
  <path
     d="m 824.02715,557.39073 q 1.04106,-6.15856 1.6166,-12.28938 l -42.58814,33.44922 -0.0575,-0.29535 q -0.96077,3.61905 -2.00518,7.11431 l 42.93417,-28.62924 z"
     fill="#57b894"
     id="path8"
     style="stroke-width:0.828488;fill:#40bf61;fill-opacity:1" />
  <path
     d="m 787.9135,556.02667 38.11616,-35.32575 0.14938,0.61115 a 138.47583,138.47583 0 0 0 -5.30961,-32.25314 l -28.77935,35.88464 q -1.48953,16.26396 -4.17658,31.0831 z"
     fill="#57b894"
     id="path10"
     style="stroke-width:0.828488;fill:#40bf61;fill-opacity:1" />
  <path
     d="m 791.36613,524.33414 -50.98554,-50.66708 0.22128,-0.61888 a 115.62607,115.62607 0 0 0 -10.32121,20.89406 l 58.02079,55.02682 c 1.38131,-8.6007 2.36754,-16.90816 3.06468,-24.63492 z"
     fill="#57b894"
     id="path12"
     style="stroke-width:0.828488;fill:#40bf61;fill-opacity:1" />
  <path
     d="m 786.97035,556.66688 q 0.58504,-3.1509 1.09787,-6.26183 l -58.23483,-55.22991 0.21503,-0.62336 q -1.44469,3.85491 -2.71165,7.9577 l 0.21106,-0.62526 z"
     fill="#57b894"
     id="path14"
     style="stroke-width:0.828488;fill:#40bf61;fill-opacity:1" />
  <path
     d="m 783.35978,576.85172 42.23327,-33.17051 0.12322,0.63342 a 165.36099,165.36099 0 0 0 0.49792,-22.28557 l -38.63147,35.80358 q -1.84787,9.87141 -4.22294,19.01908 z"
     fill="#57b894"
     id="path16"
     style="stroke-width:0.828488;fill:#40bf61;fill-opacity:1" />
  <path
     d="m 723.29008,554.41792 47.75386,55.36041 a 198.88845,198.88845 0 0 0 8.3901,-22.31012 l -57.47178,-53.77066 a 159.965,159.965 0 0 0 1.0586,21.38855 z"
     fill="#57b894"
     id="path18"
     style="stroke-width:0.828488;fill:#40bf61;fill-opacity:1" />
  <path
     d="m 791.6216,449.05053 0.3875,-0.20081 c -10.02474,-4.63276 -20.51966,-3.46585 -30.30483,2.38522 l 31.36606,37.81611 c 0.20878,-23.53391 -1.42472,-39.76762 -1.44873,-40.00052 z"
     fill="#57b894"
     id="path20"
     style="stroke-width:0.828488;fill:#40bf61;fill-opacity:1" />
  <path
     d="m 779.7765,589.32838 a 197.59762,197.59762 0 0 1 -7.58585,20.11873 l 43.32618,-25.69259 0.0823,0.64009 a 78.334051,78.334051 0 0 0 6.78239,-18.57198 q 0.84777,-3.80669 1.50795,-7.62322 l -43.44621,28.97026 c -0.22135,0.72091 -0.44004,1.4459 -0.66674,2.15871 z"
     fill="#57b894"
     id="path22"
     style="stroke-width:0.828488;fill:#40bf61;fill-opacity:1" />
  <path
     d="m 793.05128,490.80449 -32.08546,-38.68405 0.24576,-0.59163 c -7.3417,4.51888 -14.26836,11.68123 -20.28023,21.00881 l 50.57035,50.25444 c 0.98726,-11.44236 1.42723,-22.29741 1.54958,-31.98757 z"
     fill="#57b894"
     id="path24"
     style="stroke-width:0.828488;fill:#40bf61;fill-opacity:1" />
  <path
     d="m 779.8449,586.13504 a 268.3967,268.3967 0 0 0 6.86094,-28.06576 l -59.56869,-54.91751 q -1.69177,5.56615 -3.03061,11.55108 a 96.174046,96.174046 0 0 0 -2.10308,17.38177 l 57.80029,54.07784 z"
     fill="#57b894"
     id="path26"
     style="stroke-width:0.828488;fill:#40bf61;fill-opacity:1" />
  <path
     d="m 841.20473,645.55172 c -6.34998,7.47121 -13.70174,15.64493 -21.85856,23.91628 l 44.21085,-9.1089 -0.19841,0.55095 a 88.089682,88.089682 0 0 0 6.54022,-23.8263 l -0.1583,0.54183 z"
     fill="#57b894"
     id="path28"
     style="stroke-width:0.828488;fill:#40bf61;fill-opacity:1" />
  <path
     d="m 867.19,613.55891 c -0.14709,-0.34828 -0.30249,-0.68816 -0.4588,-1.02702 -1.49971,2.20393 -10.38847,15.08081 -24.41496,31.7072 l 27.64192,-7.67754 c 0.89884,-8.47437 0.0581,-16.30839 -2.76816,-23.00264 z"
     fill="#57b894"
     id="path30"
     style="stroke-width:0.828488;fill:#40bf61;fill-opacity:1" />
  <path
     d="m 777.05502,706.02322 q -3.04814,2.17454 -6.08194,4.20038 l 51.32761,5.33419 -0.33779,0.56472 q 4.72994,-4.07925 9.0835,-8.43401 l -54.13548,-1.40112 z"
     fill="#57b894"
     id="path32"
     style="stroke-width:0.828488;fill:#40bf61;fill-opacity:1" />
  <path
     d="m 795.01859,692.03813 51.8879,-2.89647 -0.27473,0.56597 a 138.48084,138.48084 0 0 0 16.48224,-28.2276 l -45.05336,9.2821 q -11.52075,11.57625 -23.04205,21.276 z"
     fill="#57b894"
     id="path34"
     style="stroke-width:0.828488;fill:#40bf61;fill-opacity:1" />
  <path
     d="m 778.22879,705.17287 53.68431,1.38945 -0.30913,0.56647 a 165.36089,165.36089 0 0 0 14.59754,-16.84653 l -52.58956,2.93579 q -7.71933,6.42421 -15.38316,11.95482 z"
     fill="#57b894"
     id="path36"
     style="stroke-width:0.828488;fill:#40bf61;fill-opacity:1" />
  <path
     d="m 714.32725,735.39909 c 0.35708,-0.40619 0.71821,-0.81917 1.09054,-1.25003 a 137.61311,137.61311 0 0 0 31.18996,-10.91693 l -0.77425,-38.5055 q 0.56284,-1.50943 1.08444,-3.03972 l 0.82428,40.99049 a 198.88229,198.88229 0 0 0 20.69168,-11.83164 l -9.1026,-71.28857 q 0.55381,-0.3302 1.12913,-0.67864 l 9.091,71.19735 0.0492,0.005 a 268.41893,268.41893 0 0 0 23.18503,-17.2399 l -9.47696,-70.11722 q 0.54846,-0.45252 1.09787,-0.91371 l 9.47726,70.11949 q 2.46024,-2.05362 4.83944,-4.12256 l -8.58154,-71.03881 q 0.54535,-0.5024 1.08886,-1.01312 l 8.58818,71.09471 c 6.54952,-5.74317 12.60776,-11.51245 18.07291,-17.01885 l -6.95228,-71.54261 0.56518,-0.33554 c -1.95745,0.63354 -3.9396,1.353 -5.93799,2.1403 a 101.33545,101.33545 0 0 0 9.49076,-14.64596 l -43.74091,25.93842 a 152.0431,152.0431 0 0 1 -9.47811,17.66088 c -0.77723,0.8226 -1.54958,1.65694 -2.31239,2.51331 l 0.1111,0.87022 q -0.50887,0.7573 -1.02383,1.50345 l -0.14778,-1.15768 c -0.43509,0.50142 -0.86552,1.01262 -1.29575,1.52418 a 143.19804,143.19804 0 0 0 13.35433,-23.37082 l -47.40425,-54.95533 c 0.59569,5.10536 1.39186,10.23337 2.33116,15.3109 a 86.973866,86.973866 0 0 0 -15.80839,-17.14574 l 0.37287,0.42373 -8.58115,28.34568 c 2.91131,9.36297 5.8795,19.94821 8.49926,31.26572 l 15.75252,-41.63466 q 0.17923,0.94424 0.36486,1.88558 l -15.71248,41.52767 q 3.61055,15.92801 5.63558,30.85202 l 19.70362,-35.2973 q 0.22853,0.72404 0.45667,1.4379 l -19.91668,35.67914 q 1.29395,9.95918 1.86259,19.39301 l 24.47189,-36.48858 q 0.25094,0.67551 0.49442,1.32418 l -24.73042,36.87414 -0.14594,-0.26314 q 0.20484,3.73881 0.29189,7.38573 l 27.93929,-35.37824 q 0.27862,0.68847 0.51737,1.2698 l -28.42295,35.99036 c 0.0123,0.75401 0.0284,1.51111 0.0331,2.25906 a 197.57876,197.57876 0 0 1 -0.99577,21.47829 l 2.71413,-3.08649 q -0.72079,1.74693 -1.4031,3.44525 l -1.54332,1.75504 c -0.12253,1.06305 -0.25743,2.11563 -0.39834,3.16301 q -0.78931,2.03659 -1.51785,3.97357 0.59223,-3.64073 1.02161,-7.32579 l -62.06951,-37.61166 c 17.87901,38.94261 49.39837,75.14579 51.41507,77.44282 q 2.0335,-4.39053 3.6689,-8.98099 c 0.37043,-0.0568 0.74048,-0.11807 1.11053,-0.1788 -0.12796,0.36702 -0.25301,0.73681 -0.38401,1.10099 -0.19337,0.0318 -0.38751,0.0678 -0.58065,0.0985 q 0.2403,0.0527 0.50394,0.10936 -1.16412,3.21571 -2.48571,6.28299 c 1.24175,-1.25342 3.10244,-3.19051 5.35581,-5.69715 14.25769,2.77188 52.50821,8.23818 84.21889,-4.94948 l -50.23265,-7.92112 a 138.98252,138.98252 0 0 1 -32.59958,11.30996 z m 31.22241,-64.79014 1.1199,-1.27351 0.0364,1.80849 -1.1199,1.27351 z"
     fill="#57b894"
     id="path38"
     style="stroke-width:0.828488;fill:#40bf61;fill-opacity:1" />
  <path
     d="m 866.10549,612.01128 0.42655,0.0925 c -4.76617,-9.96207 -13.59354,-15.75713 -24.86188,-17.49187 l 0.0381,49.13134 c 15.17112,-17.9924 24.26713,-31.53729 24.39722,-31.73196 z"
     fill="#57b894"
     id="path40"
     style="stroke-width:0.828488;fill:#40bf61;fill-opacity:1" />
  <path
     d="m 767.51119,712.49684 a 197.59941,197.59941 0 0 1 -18.67462,10.65684 l 49.75652,7.84592 -0.34488,0.54542 a 78.337928,78.337928 0 0 0 17.06923,-9.97797 q 3.08085,-2.39123 6.02354,-4.90962 l -51.93945,-5.39801 c -0.63029,0.41409 -1.26112,0.83298 -1.89034,1.23742 z"
     fill="#57b894"
     id="path42"
     style="stroke-width:0.828488;fill:#40bf61;fill-opacity:1" />
  <path
     d="m 818.9797,668.72977 c 8.05846,-8.18309 15.32078,-16.26294 21.59565,-23.64814 l -0.0387,-50.25868 0.56662,-0.29886 c -8.53662,-1.20222 -18.43983,-0.10386 -29.01931,3.24571 z"
     fill="#57b894"
     id="path44"
     style="stroke-width:0.828488;fill:#40bf61;fill-opacity:1" />
  <path
     d="M135.22758,844.57613s411.93965-235.58721,909.3762,0"
     fill="#f2f2f2"
     id="path118"
     style="fill:#ebebef;fill-opacity:1"
     transform="translate(-135.22758 -53.46492)" />
  <path
     d="m 709.64253,554.13891 c -6.67663,-5.29576 -13.74367,-8.77937 -20.91091,-9.97583 -0.37286,-0.0623 -0.74315,-0.11292 -1.11304,-0.1623 1.05868,2.44653 7.17662,16.84779 13.71135,37.59571 z"
     fill="#57b894"
     id="path46"
     style="stroke-width:0.828488;fill:#40bf61;fill-opacity:1" />
  <path
     d="m 711.51765,624.24851 -64.14984,-32.42645 0.0191,-0.65699 a 115.62247,115.62247 0 0 0 -3.35743,23.06112 l 72.18812,34.3982 c -1.34478,-8.60651 -2.97473,-16.81198 -4.69999,-24.37588 z"
     fill="#57b894"
     id="path48"
     style="stroke-width:0.828488;fill:#40bf61;fill-opacity:1" />
  <path
     d="m 716.43967,650.06211 -72.45454,-34.52511 0.0119,-0.6593 q -0.18256,4.11262 -0.1193,8.4062 l 0.007,-0.65988 73.44581,33.73263 q -0.41743,-3.17744 -0.89132,-6.29454 z"
     fill="#57b894"
     id="path50"
     style="stroke-width:0.828488;fill:#40bf61;fill-opacity:1" />
  <path
     d="m 719.68446,687.97915 -71.27783,-33.37323 a 159.96184,159.96184 0 0 0 7.61795,20.01397 l 0.0495,-0.71867 62.52708,37.88887 a 198.89345,198.89345 0 0 0 1.08331,-23.81094 z"
     fill="#57b894"
     id="path52"
     style="stroke-width:0.828488;fill:#40bf61;fill-opacity:1" />
  <path
     d="m 688.49069,552.57254 0.30638,-0.31068 c -10.96577,-1.30735 -20.58608,3.04643 -28.08348,11.63552 l 41.51886,26.26916 c -7.07572,-22.44608 -13.6469,-37.37992 -13.74176,-37.594 z"
     fill="#57b894"
     id="path54"
     style="stroke-width:0.828488;fill:#40bf61;fill-opacity:1" />
  <path
     d="m 702.75638,591.83991 -42.47133,-26.8722 0.0508,-0.6386 c -5.58533,6.56687 -9.95903,15.51953 -12.79329,26.24854 l 63.62742,32.16239 c -2.59791,-11.18716 -5.5348,-21.64664 -8.41359,-30.90013 z"
     fill="#57b894"
     id="path56"
     style="stroke-width:0.828488;fill:#40bf61;fill-opacity:1" />
  <path
     d="m 719.66311,686.58427 a 268.41639,268.41639 0 0 0 -2.15013,-28.81211 l -73.62652,-33.81574 q 0.11164,5.81646 0.68824,11.92219 a 96.177873,96.177873 0 0 0 3.3726,17.18066 l 71.68515,33.56377 z"
     fill="#57b894"
     id="path58"
     style="stroke-width:0.828488;fill:#40bf61;fill-opacity:1" />
  <path
     d="M 680.47,482.93804 466.6309,455.98293 c -9.69199,-80.62025 4.95066,-159.3274 29.95011,-237.599 l 213.8391,26.95509 C 678.15233,322.12709 668.68073,401.38213 680.47,482.93804 Z"
     fill="#f2f2f2"
     id="path60"
     style="stroke-width:0.828488" />
  <rect
     x="553.19458"
     y="179.05739"
     width="131.71356"
     height="14.151044"
     transform="rotate(7.18442)"
     fill="#6bd86b"
     id="rect62"
     style="stroke-width:0.828488" />
  <rect
     x="527.06964"
     y="213.34645"
     width="178.52087"
     height="7.0755219"
     transform="rotate(7.18442)"
     fill="#6bd86b"
     opacity="0.3"
     id="rect64"
     style="stroke-width:0.828488" />
  <rect
     x="527.06958"
     y="236.20583"
     width="178.52087"
     height="7.0755219"
     transform="rotate(7.18442)"
     fill="#6bd86b"
     opacity="0.3"
     id="rect66"
     style="stroke-width:0.828488" />
  <rect
     x="527.06964"
     y="259.06522"
     width="178.52087"
     height="7.0755219"
     transform="rotate(7.18442)"
     fill="#6bd86b"
     opacity="0.3"
     id="rect68"
     style="stroke-width:0.828488" />
  <rect
     x="527.06958"
     y="281.92456"
     width="178.52087"
     height="7.0755219"
     transform="rotate(7.18442)"
     fill="#6bd86b"
     opacity="0.3"
     id="rect70"
     style="stroke-width:0.828488" />
  <rect
     x="527.06964"
     y="304.78394"
     width="178.52087"
     height="7.0755219"
     transform="rotate(7.18442)"
     fill="#6bd86b"
     opacity="0.3"
     id="rect72"
     style="stroke-width:0.828488" />
  <rect
     x="527.06958"
     y="327.64334"
     width="178.52087"
     height="7.0755219"
     transform="rotate(7.18442)"
     fill="#6bd86b"
     opacity="0.3"
     id="rect74"
     style="stroke-width:0.828488" />
  <rect
     x="527.06964"
     y="350.50272"
     width="178.52087"
     height="7.0755219"
     transform="rotate(7.18442)"
     fill="#6bd86b"
     opacity="0.3"
     id="rect76"
     style="stroke-width:0.828488" />
  <path
     d="M 579.20593,403.51253 379.1465,323.32548 c 11.02331,-80.44903 45.10525,-152.88964 89.09673,-222.28826 l 200.05943,80.18705 c -50.64785,66.1242 -79.86567,140.40334 -89.09673,222.28826 z"
     fill="#e6e6e6"
     id="path78"
     style="stroke-width:0.828488" />
  <rect
     x="505.42126"
     y="-55.930477"
     width="131.71356"
     height="14.151044"
     transform="rotate(21.84171)"
     fill="#6bd86b"
     id="rect80"
     style="stroke-width:0.828488" />
  <rect
     x="479.2963"
     y="-21.641399"
     width="178.52087"
     height="7.0755219"
     transform="rotate(21.84171)"
     fill="#6bd86b"
     opacity="0.3"
     id="rect82"
     style="stroke-width:0.828488" />
  <rect
     x="479.2963"
     y="1.2179778"
     width="178.52087"
     height="7.0755219"
     transform="rotate(21.84171)"
     fill="#6bd86b"
     opacity="0.3"
     id="rect84"
     style="stroke-width:0.828488" />
  <rect
     x="479.29626"
     y="24.077351"
     width="178.52087"
     height="7.0755219"
     transform="rotate(21.84171)"
     fill="#6bd86b"
     opacity="0.3"
     id="rect86"
     style="stroke-width:0.828488" />
  <rect
     x="479.29626"
     y="46.936729"
     width="178.52087"
     height="7.0755219"
     transform="rotate(21.84171)"
     fill="#6bd86b"
     opacity="0.3"
     id="rect88"
     style="stroke-width:0.828488" />
  <rect
     x="479.2963"
     y="69.796097"
     width="178.52087"
     height="7.0755219"
     transform="rotate(21.84171)"
     fill="#6bd86b"
     opacity="0.3"
     id="rect90"
     style="stroke-width:0.828488" />
  <rect
     x="479.29626"
     y="92.655479"
     width="178.52087"
     height="7.0755219"
     transform="rotate(21.84171)"
     fill="#6bd86b"
     opacity="0.3"
     id="rect92"
     style="stroke-width:0.828488" />
  <rect
     x="479.29626"
     y="115.51486"
     width="178.52087"
     height="7.0755219"
     transform="rotate(21.84171)"
     fill="#6bd86b"
     opacity="0.3"
     id="rect94"
     style="stroke-width:0.828488" />
  <path
     d="M 529.73061,422.82475 H 314.19932 c -19.69855,-78.77515 -15.01425,-158.69561 0,-239.47921 h 215.53129 c -22.41105,80.2207 -21.89637,160.03804 0,239.47921 z"
     fill="#f2f2f2"
     id="path96"
     style="stroke-width:0.828488" />
  <rect
     x="347.39984"
     y="207.83772"
     width="131.71356"
     height="14.151044"
     fill="#6bd86b"
     id="rect98"
     style="stroke-width:0.828488" />
  <rect
     x="321.27484"
     y="242.1268"
     width="178.52087"
     height="7.0755219"
     fill="#6bd86b"
     opacity="0.3"
     id="rect100"
     style="stroke-width:0.828488" />
  <rect
     x="321.27484"
     y="264.98618"
     width="178.52087"
     height="7.0755219"
     fill="#6bd86b"
     opacity="0.3"
     id="rect102"
     style="stroke-width:0.828488" />
  <rect
     x="321.27484"
     y="287.84555"
     width="178.52087"
     height="7.0755219"
     fill="#6bd86b"
     opacity="0.3"
     id="rect104"
     style="stroke-width:0.828488" />
  <rect
     x="321.27484"
     y="310.70493"
     width="178.52087"
     height="7.0755219"
     fill="#6bd86b"
     opacity="0.3"
     id="rect106"
     style="stroke-width:0.828488" />
  <rect
     x="321.27484"
     y="333.5643"
     width="178.52087"
     height="7.0755219"
     fill="#6bd86b"
     opacity="0.3"
     id="rect108"
     style="stroke-width:0.828488" />
  <rect
     x="321.27484"
     y="356.42368"
     width="178.52087"
     height="7.0755219"
     fill="#6bd86b"
     opacity="0.3"
     id="rect110"
     style="stroke-width:0.828488" />
  <rect
     x="321.27484"
     y="379.28305"
     width="178.52087"
     height="7.0755219"
     fill="#6bd86b"
     opacity="0.3"
     id="rect112"
     style="stroke-width:0.828488" />
  <path
     d="m 362.16392,371.9314 -74.25315,-57.72673 a 8.4762051,8.4762051 0 0 0 -7.34807,-4.25106 h -40.07594 a 8.4761968,8.4761968 0 0 0 -8.4762,8.4762 v 353.71567 a 27.493498,27.493498 0 0 0 27.4935,27.4935 h 411.39589 a 27.49349,27.49349 0 0 0 27.49349,-27.4935 V 396.92078 A 24.989376,24.989376 0 0 0 673.40407,371.9314 Z"
     fill="#3f3d56"
     id="path114"
     style="stroke-width:0.828488;fill:#3d3d5b;fill-opacity:1" />
  <rect
     x="602.98517"
     y="442.85999"
     width="115.152"
     height="40.303177"
     fill="#6bd86b"
     id="rect116"
     style="fill:#33cc40;fill-opacity:1;stroke-width:1.27848"
     rx="12.654035"
     ry="12.654035" />
  <path
     d="m 109.10047,244.84266 c 0,0 4.42119,23.43227 1.32636,25.20074 a 53.74333,53.74333 0 0 0 -7.07388,5.30542 l 7.95812,11.053 19.01108,3.97906 18.12685,-16.80049 v -16.80053 c 0,0 -5.30542,-8.40025 -4.42118,-13.70567 0.88424,-5.30542 -34.92735,1.76847 -34.92735,1.76847 z"
     fill="#fbbebe"
     id="path120"
     style="fill:#ecb993;fill-opacity:1" />
  <path
     d="m 75.643842,289.24991 -2.65271,1.32636 c 0,0 -5.74753,2.21059 -8.40024,21.22168 -2.6527,19.01109 -8.84236,64.54926 -7.07389,65.87562 1.76848,1.32636 0.88423,10.16872 0.88423,10.16872 l 13.26355,-69.41257 z"
     fill="#2f2e41"
     id="path124"
     style="fill:#3e485b;fill-opacity:1" />
  <path
     d="m 110.03305,177.17378 c -0.40443,0.844 -0.54624,1.8294 -0.92568,2.68917 -1.72313,3.90445 -6.62841,3.03076 -10.166504,4.50761 -2.99639,1.25073 -5.23273,4.68521 -5.4672,8.3963 -0.0995,1.57556 0.13146,3.16464 -0.0101,4.73579 -0.2616,2.90222 -1.758,5.458 -2.29062,8.30907 -1.29382,6.926 1.72508,17.86363 5.13383,14.12593 1.07493,-1.17866 2.42043,-1.96 3.581503,-3.021 3.015451,-2.75554 4.551211,-7.13691 7.000601,-10.57567 a 3.69671,3.69671 0 0 1 1.24359,-1.23258 c 1.7898,-0.88936 3.38313,1.4911 4.798,3.05146 a 7.51228,7.51228 0 0 0 11.27001,-0.2152 6.61413,6.61413 0 0 1 1.58775,-1.6222 3.38568,3.38568 0 0 1 2.20652,-0.21655 14.48612,14.48612 0 0 1 8.83422,5.26 c 1.18143,1.44593 2.16941,3.14708 3.58553,4.26811 1.41612,1.12103 3.48219,1.49036 4.75752,0.158 2.56678,1.81466 3.52423,5.66688 3.531,9.17492 0.007,3.50804 -0.7119,6.99342 -0.53659,10.49547 0.17531,3.50205 1.55021,7.28166 4.341,8.56656 a 12.47534,12.47534 0 0 1 4.61927,-8.08163 c 1.90077,-1.41475 4.21092,-2.11563 5.81837,-3.96208 3.21821,-3.6967 2.19848,-9.84564 2.32209,-15.11951 0.15245,-6.5047 2.40671,-12.7234 2.805,-19.21384 0.199,-3.24358 -0.13609,-6.7212 -1.84325,-9.28788 a 15.26182,15.26182 0 0 0 -4.80717,-4.16439 l -15.17512,-9.73568 a 6.47632,6.47632 0 0 0 -2.24979,-1.06732 c -2.23394,-0.40083 -4.16495,1.69429 -6.28271,2.61755 a 12.7216,12.7216 0 0 1 -5.51406,0.66882 c -5.89112,-0.15962 -7.54926,0.98449 -11.50909,-2.85376 a 2.79129,2.79129 0 0 0 -2.39185,-0.798 c -2.36836,0.37543 -6.9704,1.43868 -8.26601,4.14253 z"
     fill="#2f2e41"
     id="path126" />
  <polygon
     points="88.668,743.447 79.384,738.584 81.595,716.92 97.511,716.92 106.795,737.257 "
     fill="#fbbebe"
     id="polygon128"
     transform="translate(20.874056,-5.6423037)"
     style="fill:#ecb993;fill-opacity:1" />
  <path
     d="m 109.98467,728.52004 c 0,0 -14.589894,-8.84236 -17.242614,-5.74754 -2.65271,3.09482 -23.8744,25.64286 -23.8744,25.64286 0,0 -32.71674,17.68473 -7.516,20.33744 25.20075,2.65271 66.317744,-15.47414 66.317744,-15.47414 0,0 2.21059,-23.87438 0.44212,-24.3165 -1.76847,-0.44212 -9.28448,3.97906 -12.82143,2.65271 a 15.85373,15.85373 0 0 1 -5.30542,-3.09483 z"
     fill="#2f2e41"
     id="path130"
     style="fill:#3d3d5c;fill-opacity:1" />
  <polygon
     points="121.385,738.584 121.385,756.71 97.511,751.405 102.816,732.836 "
     fill="#fbbebe"
     id="polygon132"
     transform="translate(20.874056,-5.6423037)"
     style="fill:#ecb993;fill-opacity:1" />
  <path
     d="m 117.94279,739.13088 c 0,0 24.3165,-3.97906 26.5271,7.95813 2.2106,11.93719 7.95812,29.62192 2.21059,34.04311 -5.74753,4.42119 -35.36946,10.16872 -35.81158,2.65271 -0.44212,-7.51601 3.09483,-22.10592 3.09483,-22.10592 0,0 2.21059,-11.49507 0.88423,-14.5899 -1.32636,-3.09483 3.09483,-7.95813 3.09483,-7.95813 z"
     fill="#2f2e41"
     id="path134"
     style="fill:#3d3d5c;fill-opacity:1" />
  <path
     d="m 69.374466,440.58755 c 0,0 -19.95999,126.55933 -3.60162,188.45588 16.35838,61.89655 27.85345,98.59235 27.85345,98.59235 0,0 28.295554,-7.95813 28.295554,-13.26355 0,-5.30542 -11.053,-84.00247 -13.70566,-91.51848 -2.65266,-7.51601 -7.07388,-10.16872 -3.09482,-16.35838 3.97905,-6.18966 10.61083,-45.9803 10.61083,-45.9803 0,0 14.5899,65.87562 15.47414,67.6441 0.88424,1.76848 -9.28449,103.01361 -9.28449,103.01361 0,0 29.18453,21.17916 30.94829,5.30542 0.44211,-3.97906 19.89531,-145.01479 19.89531,-146.78326 0,-1.76847 7.95814,-137.05666 -4.8633,-143.68844 -12.82143,-6.63178 -98.527684,-5.41895 -98.527684,-5.41895 z"
     fill="#2f2e41"
     id="path136"
     style="fill:#7091a8;fill-opacity:1" />
  <circle
     cx="126.34304"
     cy="223.62097"
     r="30.064039"
     fill="#fbbebe"
     id="circle138"
     style="fill:#ffd3b3;fill-opacity:1" />
  <path
     d="m 119.71126,283.30695 v -3.09483 l -8.84235,-14.5899 c 0,0 -8.84236,0.88424 -10.16871,4.8633 -1.326351,3.97906 -16.358404,35.81158 -16.358404,35.81158 l -15.91625,142.8042 c 0,0 43.769704,10.61084 50.401494,3.09483 6.63178,-7.51601 31.83251,-171.09977 31.83251,-171.09977 l 3.53693,-19.89532 c 0,0 -6.07328,-8.84237 -7.45782,-7.516 -1.38454,1.32637 -24.3747,26.96921 -24.3747,26.96921 l -0.44212,3.97907 z"
     fill="#6bd86b"
     id="path140"
     style="fill:#cfe0e2;fill-opacity:1" />
  <path
     d="m 110.86891,265.62222 c 0,0 -8.63583,-2.1006 -11.43664,3.03422 -2.800818,5.13482 -2.800818,7.00203 -5.601632,8.86924 -2.800813,1.86722 -19.138888,10.26965 -20.072486,13.53726 -0.933597,3.26762 -21.006105,106.43093 -21.006105,106.43093 0,0 -9.802841,30.80895 -5.134822,51.81504 4.668018,21.00609 1.400412,25.20731 11.203253,27.07452 9.80283,1.86722 11.203253,1.86721 11.203253,-0.9336 0,-2.80082 12.603654,-97.56165 21.472909,-104.09688 8.86925,-6.53522 6.535234,-77.95595 6.535234,-77.95595 0,0 12.603646,-15.40447 12.603646,-17.73849 0,-2.33402 2.10061,-10.21136 0.23339,-10.03629 z"
     fill="#2f2e41"
     id="path142"
     style="fill:#3e485b;fill-opacity:1;stroke-width:1.05583" />
  <path
     d="m 134.08035,282.07949 c 1.23349,0.21908 18.12685,-23.0872 19.4532,-22.14486 1.32635,0.94234 7.95814,13.19268 8.84237,13.19268 0.88424,0 38.46429,9.8945 41.55912,28.27003 3.09483,18.37553 -21.6638,76.80025 -21.6638,76.80025 0,0 -10.61084,33.45287 -8.40025,48.05906 a 92.33161,98.398165 0 0 1 -0.88423,33.45286 c -0.88424,3.7694 -3.97907,8.00984 -3.09483,9.89452 0.88424,1.88469 -19.4532,-2.35583 -27.85345,2.82701 -8.40025,5.18283 -45.980291,8.95217 -43.769698,3.29816 2.210588,-5.65401 3.536998,-27.79889 9.726588,-51.35723 6.1896,-23.55833 22.10592,-79.15608 19.45321,-82.92542 -2.65271,-3.76934 3.97906,-59.83824 6.63177,-59.36706 z"
     fill="#2f2e41"
     id="path144"
     style="fill:#3e485b;fill-opacity:1;stroke-width:1.03233" />
  <path
     d="m 196.80849,291.86846 5.74754,5.30542 c 0,0 6.63178,11.49507 5.74754,16.80049 -0.88425,5.30542 18.56899,85.32883 10.61084,87.98154 -7.95816,2.65271 -26.96922,15.91625 -29.17982,19.4532 -2.2106,3.53695 -7.51599,9.7266 -11.05295,11.49507 -3.53694,1.76847 -7.07388,4.8633 -9.28448,3.09483 -2.2106,-1.76847 -7.0739,-38.02217 -3.53694,-39.34852 3.53695,-1.32635 7.07389,-5.30542 10.61084,-5.30542 3.53695,0 5.74753,-3.53695 5.74753,-6.63178 0,-3.09483 -2.65272,-21.66379 -2.65272,-21.66379 l -5.74752,-43.76971 z"
     fill="#2f2e41"
     id="path146"
     style="fill:#3e485b;fill-opacity:1" />
  <path
     d="m 115.33708,181.57314 c -0.35759,0.638 -0.483,1.38295 -0.81848,2.0329 -1.5236,2.95159 -5.86089,2.29112 -8.98929,3.40755 a 7.48785,7.48785 0 0 0 -4.8341,6.34724 c -0.088,1.19106 0.11623,2.39233 -0.009,3.58006 -0.2313,2.19394 -1.554451,4.126 -2.025374,6.28129 -1.144,5.23572 1.525324,13.50413 4.539364,10.67859 0.95044,-0.891 2.14016,-1.48166 3.16677,-2.28372 2.66628,-2.08307 4.0242,-5.3952 6.19,-7.99475 a 3.08536,3.08536 0 0 1 1.09959,-0.93178 c 1.58254,-0.67232 2.99138,1.12721 4.24241,2.30677 a 7.41424,7.41424 0 0 0 9.96494,-0.16268 5.48152,5.48152 0 0 1 1.4039,-1.22631 3.4624,3.4624 0 0 1 1.951,-0.16371 13.36681,13.36681 0 0 1 7.81126,3.97636 21.36315,21.36315 0 0 0 3.17034,3.22651 c 1.25213,0.84745 3.079,1.12664 4.20662,0.11946 2.26956,1.37181 3.11614,4.28391 3.12214,6.93584 0.006,2.65193 -0.62947,5.28672 -0.47446,7.93412 0.15501,2.6474 1.3707,5.50462 3.83834,6.476 a 9.23987,9.23987 0 0 1 4.08438,-6.10936 c 1.68067,-1.06949 3.72332,-1.59933 5.14463,-2.99516 2.84556,-2.79455 1.94391,-7.44288 2.0532,-11.4297 0.1348,-4.91727 2.128,-9.61833 2.4802,-14.52483 0.176,-2.452 -0.12033,-5.08093 -1.62981,-7.02123 a 13.12406,13.12406 0 0 0 -4.25052,-3.14809 l -13.4179,-7.35976 a 6.1977,6.1977 0 0 0 -1.98928,-0.80684 c -1.97527,-0.303 -3.68267,1.28081 -5.5552,1.97875 a 13.03789,13.03789 0 0 1 -4.87555,0.5056 c -5.209,-0.12066 -6.67509,0.74423 -10.17641,-2.15732 a 2.73775,2.73775 0 0 0 -2.11487,-0.60323 c -2.09409,0.28365 -6.16324,1.08741 -7.30884,3.13143 z"
     fill="#2f2e41"
     id="path148" />
</svg>
