<?xml version="1.0" encoding="UTF-8" standalone="no"?>
<svg
   data-name="Layer 1"
   width="883.67413"
   height="755.60474"
   viewBox="0 0 883.67415 755.60475"
   version="1.1"
   id="svg343"
   sodipodi:docname="undraw_friendship_mni7.svg"
   inkscape:version="1.2.1 (9c6d41e410, 2022-07-14)"
   xmlns:inkscape="http://www.inkscape.org/namespaces/inkscape"
   xmlns:sodipodi="http://sodipodi.sourceforge.net/DTD/sodipodi-0.dtd"
   xmlns="http://www.w3.org/2000/svg"
   xmlns:svg="http://www.w3.org/2000/svg"
   xmlns:rdf="http://www.w3.org/1999/02/22-rdf-syntax-ns#"
   xmlns:cc="http://creativecommons.org/ns#"
   xmlns:dc="http://purl.org/dc/elements/1.1/">
  <sodipodi:namedview
     id="namedview345"
     pagecolor="#ffffff"
     bordercolor="#000000"
     borderopacity="0.25"
     inkscape:showpageshadow="2"
     inkscape:pageopacity="0.0"
     inkscape:pagecheckerboard="0"
     inkscape:deskcolor="#d1d1d1"
     showgrid="false"
     inkscape:zoom="0.70710678"
     inkscape:cx="321.73358"
     inkscape:cy="410.12193"
     inkscape:window-width="1920"
     inkscape:window-height="1016"
     inkscape:window-x="0"
     inkscape:window-y="0"
     inkscape:window-maximized="1"
     inkscape:current-layer="svg343" />
  <defs
     id="defs9">
    <linearGradient
       id="d91c7811-87ec-4fc8-aa52-46c2543d8327-516"
       x1="380.12"
       y1="690.08002"
       x2="530.06"
       y2="690.08002"
       gradientTransform="matrix(-1,0,0,1,649.3355,-75.906351)"
       gradientUnits="userSpaceOnUse">
      <stop
         offset="0"
         stop-color="gray"
         stop-opacity="0.25"
         id="stop2" />
      <stop
         offset="0.54"
         stop-color="gray"
         stop-opacity="0.12"
         id="stop4" />
      <stop
         offset="1"
         stop-color="gray"
         stop-opacity="0.1"
         id="stop6" />
    </linearGradient>
  </defs>
  <title
     id="title11">friendship</title>
  <path
     d="m 765.17164,563.24017 c 15.33,22.63 10.44,103.65 10.44,103.65 0,0 -77.05001,-25.51 -92.38001,-48.13 a 49.490313,49.490313 0 0 1 81.95001,-55.51 z"
     fill="#2dd23a"
     id="path149" />
  <path
     d="m 765.17164,563.24017 c 15.33,22.63 10.44,103.65 10.44,103.65 0,0 -77.05001,-25.51 -92.38001,-48.13 a 49.490313,49.490313 0 0 1 81.95001,-55.51 z"
     opacity="0.1"
     id="path151" />
  <path
     d="m 696.74163,550.08017 c 0,0 57.74001,44.58 79.17001,116.89"
     fill="none"
     stroke="#535461"
     stroke-miterlimit="10"
     id="path153" />
  <path
     d="m 790.45164,605.54017 c 0,0 -41.00003,-7 -13,60.91 0,0 28.49,-10.86 30.71,-37.88 a 21.56,21.56 0 0 0 -17.15,-22.92 z"
     fill="#2dd23a"
     id="path155" />
  <path
     d="m 791.05164,605.47017 c 0,0 7.81,37.56 -13.56,61"
     fill="none"
     stroke="#535461"
     stroke-miterlimit="10"
     id="path157" />
  <path
     d="m 882.68574,424.28963 c -5.5367,25.52182 -33.9614,38.31447 -49.8865,57.35384 -30.01,35.88469 -18.3231,88.28831 0.7169,130.25654 6.3732,14.05287 13.607,28.93079 10.9063,43.99909 -3.2902,18.43193 -20.7768,31.90456 -39.1397,39.04885 -33.4596,13.01024 -73.5313,9.90955 -104.29021,-8.0872 -26.57644,-15.54883 -45.61651,-40.79866 -72.64704,-55.68564 -45.24208,-24.83279 -102.82432,-15.41283 -151.95409,1.65915 -34.75012,12.10359 -72.75059,27.85188 -107.28563,15.21337 -24.298,-8.90318 -41.09947,-30.57181 -50.25304,-53.49159 -4.41347,-11.08817 -7.624,-23.09204 -16.06057,-31.87736 -5.01894,-5.23128 -11.56746,-8.93944 -18.26733,-12.05826 -61.2469,-28.55907 -138.61811,-13.2641 -198.072528,-44.942 -40.16738,-21.38755 -65.89139,-61.73291 -77.2755995,-103.80992 -11.38421,-42.07703 -10.06178004,-86.19399 -7.16991,-129.53124 2.05537,-30.82565 5.74389,-63.66403 26.6640695,-87.43606 22.13109,-25.14105 60.10768,-34.4522 94.443538,-29.7105 34.33587,4.74172 65.44527,21.81368 92.82634,41.86849 34.25619,25.07759 65.94716,56.29309 107.95482,66.44743 28.60791,6.91765 58.6976,3.1279 88.20572,1.81327 49.32894,-2.18499 98.67378,2.71991 147.72388,8.01468 23.89964,2.60204 47.87898,5.33102 71.57153,9.28396 q 7.96656,1.32369 15.93311,2.85591 c 2.66083,0.51678 5.32166,1.0517 7.96657,1.60474 2.0713,0.42613 4.13464,0.90663 6.19797,1.33277 q 4.88351,1.07889 9.73514,2.26659 c 9.289,2.26658 18.49038,4.83238 27.59615,7.75174 31.65908,10.1634 57.04051,28.62253 86.93911,41.5149 19.4861,8.40453 40.7329,10.72553 59.1835,21.42383 22.7046,13.13718 43.5611,36.08417 37.7375,62.92062 z"
     fill="#2dd23a"
     opacity="0.1"
     id="path13"
     style="fill:#a0e166;fill-opacity:1;stroke-width:0.84987" />
  <circle
     cx="692.23755"
     cy="375.51999"
     r="102.23"
     fill="#2dd23a"
     id="circle15" />
  <circle
     cx="583.51752"
     cy="347.59"
     r="102.23"
     fill="#2dd23a"
     id="circle17" />
  <circle
     cx="463.83752"
     cy="348.59"
     r="102.23"
     fill="#2dd23a"
     id="circle19" />
  <circle
     cx="424.93756"
     cy="375.51999"
     r="102.23"
     fill="#2dd23a"
     id="circle21" />
  <circle
     cx="359.10754"
     cy="384.5"
     r="102.23"
     fill="#2dd23a"
     id="circle23" />
  <circle
     cx="332.17755"
     cy="303.70999"
     r="102.23"
     fill="#2dd23a"
     id="circle25" />
  <circle
     cx="362.09753"
     cy="209.95"
     r="102.23"
     fill="#2dd23a"
     id="circle27" />
  <circle
     cx="418.94751"
     cy="209.95"
     r="102.23"
     fill="#2dd23a"
     id="circle29" />
  <circle
     cx="451.86755"
     cy="168.06"
     r="102.23"
     fill="#2dd23a"
     id="circle31" />
  <circle
     cx="535.64752"
     cy="213.94"
     r="102.23"
     fill="#2dd23a"
     id="circle33" />
  <circle
     cx="731.13751"
     cy="303.70999"
     r="102.23"
     fill="#2dd23a"
     id="circle35" />
  <circle
     cx="672.28754"
     cy="252.84"
     r="102.23"
     fill="#2dd23a"
     id="circle37" />
  <circle
     cx="634.38751"
     cy="201.97"
     r="102.23"
     fill="#2dd23a"
     id="circle39" />
  <circle
     cx="562.57751"
     cy="125.17"
     r="102.23"
     fill="#2dd23a"
     id="circle41" />
  <circle
     cx="696.22754"
     cy="209.95"
     r="102.23"
     fill="#2dd23a"
     id="circle43" />
  <g
     opacity="0.1"
     id="g75"
     transform="translate(-247.71246)">
    <circle
       cx="939.95001"
       cy="375.51999"
       r="102.23"
       id="circle45" />
    <circle
       cx="831.22998"
       cy="347.59"
       r="102.23"
       id="circle47" />
    <circle
       cx="711.54999"
       cy="348.59"
       r="102.23"
       id="circle49" />
    <circle
       cx="672.65002"
       cy="375.51999"
       r="102.23"
       id="circle51" />
    <circle
       cx="606.82001"
       cy="384.5"
       r="102.23"
       id="circle53" />
    <circle
       cx="579.89001"
       cy="303.70999"
       r="102.23"
       id="circle55" />
    <circle
       cx="609.81"
       cy="209.95"
       r="102.23"
       id="circle57" />
    <circle
       cx="666.65997"
       cy="209.95"
       r="102.23"
       id="circle59" />
    <circle
       cx="699.58002"
       cy="168.06"
       r="102.23"
       id="circle61" />
    <circle
       cx="783.35999"
       cy="213.94"
       r="102.23"
       id="circle63" />
    <circle
       cx="978.84998"
       cy="303.70999"
       r="102.23"
       id="circle65" />
    <circle
       cx="920"
       cy="252.84"
       r="102.23"
       id="circle67" />
    <circle
       cx="882.09998"
       cy="201.97"
       r="102.23"
       id="circle69" />
    <circle
       cx="810.28998"
       cy="125.17"
       r="102.23"
       id="circle71" />
    <circle
       cx="943.94"
       cy="209.95"
       r="102.23"
       id="circle73" />
  </g>
  <path
     d="m 641.74754,554.67 c 0,0 62.5,-52.53 31.58,-127.33 l -30.92,-11.58 -33.55,103.29 z"
     fill="#67647e"
     id="path77"
     style="fill:#6b5655;fill-opacity:1" />
  <path
     d="m 645.07754,412.2 7.4,2.77 -32.94,101.41 28.74,31.12 c -2.38,2.37 -3.86,3.61 -3.86,3.61 l -32.9,-35.62 z"
     opacity="0.1"
     id="path79" />
  <path
     d="m 359.48754,445.26 8.12,32.5 c 0,0 57.37,7.48 95.62,2.78 a 49.72,49.72 0 0 0 19.07,-6.88 c 3.23,-1.91 8.33,-2.74 15.3,2.48 11.94,9 70.54,81 61.05,155.7 a 25.82,25.82 0 0 1 -22.17,22.24 v 0 a 77.86,77.86 0 0 0 -32.67,12.36 l -29,19.31 297.35,-6.5 -30.87,-37.37 c 0,0 -21.12,-17.87 -37.37,-19.5 -4.74,-0.47 -8.65,-4.82 -11.81,-10.73 -18.51,-34.65 -40.65,-67.23 -64.65,-98.34 -17.48,-22.66 -32.15,-46.54 -30.78,-61.54 3.25,-35.75 0,-94.24 0,-94.24 l -61.74,-8.12 c 0,0 8.12,78 -66.62,97.49 -74.74,19.49 -108.83,-1.64 -108.83,-1.64 z"
     fill="#67647e"
     id="path93"
     style="fill:#6b5655;fill-opacity:1" />
  <g
     opacity="0.1"
     id="g99"
     transform="translate(-247.71246)">
    <path
       d="m 686.45,519.34 c 0,0 34.12,21.12 108.87,1.62 74.75,-19.5 66.62,-97.49 66.62,-97.49 l 11.75,1.53 c -0.22,-5 -0.39,-8 -0.39,-8 l -61.74,-8.12 c 0,0 8.12,78 -66.62,97.49 -74.74,19.49 -108.87,-1.62 -108.87,-1.62 l 8.12,32.5 c 0,0 21.92,2.86 47.7,3.93 z"
       transform="translate(-28.88,-59.45)"
       id="path95" />
    <path
       d="m 830.77,740.51 a 77.86,77.86 0 0 1 32.67,-12.36 v 0 A 25.78,25.78 0 0 0 885.6,706 c 9.54,-74.7 -49.09,-146.83 -61,-155.79 -13,-9.75 -19.5,1.62 -19.5,1.62 a 104.61,104.61 0 0 1 -14,2.67 c 21.06,28 51.19,81.71 44.14,136.87 a 25.78,25.78 0 0 1 -22.16,22.15 v 0 a 77.86,77.86 0 0 0 -32.67,12.36 l -29,19.31 74.76,-1.63 z"
       transform="translate(-28.88,-59.45)"
       id="path97" />
  </g>
  <path
     d="m 735.62426,662.53945 c 0,0 11.35,-2.27 14.37,-5.3 3.02,-3.03 16.64,-8.32 18.16,-4.54 1.52,3.78 20.43,16.64 7.56,18.91 -12.87,2.27 -30.26,3 -34,1.51 -3.74,-1.49 -6.09,-10.58 -6.09,-10.58 z"
     fill="#a8a8a8"
     id="path117" />
  <path
     d="m 775.72426,670.23945 c -12.86,2.27 -30.26,3 -34,1.51 -2.88,-1.15 -4.88,-6.69 -5.67,-9.26 l -0.38,0.08 c 0,0 2.27,9.08 6.05,10.59 3.78,1.51 21.18,0.76 34,-1.51 3.71,-0.66 4.77,-2.19 4.37,-4.14 -0.32,1.24 -1.61,2.22 -4.37,2.73 z"
     opacity="0.2"
     id="path119" />
  <path
     d="m 583.90754,672.01 c 0,0 34.43,-6.89 43.62,-16.07 9.19,-9.18 50.5,-25.25 55.09,-13.77 4.59,11.48 62,50.5 23,57.39 -39,6.89 -91.82,9.18 -103.3,4.59 -11.48,-4.59 -18.41,-32.14 -18.41,-32.14 z"
     fill="#a8a8a8"
     id="path121" />
  <path
     d="m 705.57754,695.29 c -39,6.89 -91.82,9.18 -103.3,4.59 -8.74,-3.5 -14.82,-20.3 -17.22,-28.11 l -1.15,0.24 c 0,0 6.89,27.55 18.36,32.14 11.47,4.59 64.28,2.3 103.3,-4.59 11.27,-2 14.49,-6.66 13.27,-12.56 -0.95,3.85 -4.88,6.82 -13.26,8.29 z"
     opacity="0.2"
     id="path123" />
  <path
     d="m 577.23754,614.61 a 21.82,21.82 0 0 1 -10.95,5.14 21.82,21.82 0 0 1 5.83,-10.59 c 4.63,-4.34 9.54,-6.64 10.95,-5.14 1.41,1.5 -1.2,6.25 -5.83,10.59 z"
     fill="#2dd23a"
     id="path137" />
  <path
     d="m 577.23754,614.61 a 21.82,21.82 0 0 1 -10.95,5.14 21.82,21.82 0 0 1 5.83,-10.59 c 4.63,-4.34 9.54,-6.64 10.95,-5.14 1.41,1.5 -1.2,6.25 -5.83,10.59 z"
     opacity="0.1"
     id="path139" />
  <path
     d="m 726.34481,665.00503 c 0,0 17.11,-3.4 21.67,-7.93 4.56003,-4.53 25.10003,-12.46 27.38003,-6.8 2.28,5.66 30.8,24.92 11.41,28.31 -19.39,3.39 -45.63003,4.53 -51.33003,2.27 -5.7,-2.26 -9.13,-15.85 -9.13,-15.85 z"
     fill="#a8a8a8"
     id="path159" />
  <path
     d="m 786.83484,676.49503 c -19.39,3.4 -45.63003,4.53 -51.33003,2.27 -4.34,-1.73 -7.36,-10 -8.56,-13.87 l -0.57,0.12 c 0,0 3.42,13.59 9.13,15.86 5.71,2.27 31.94003,1.13 51.33003,-2.27 5.6,-1 7.2,-3.28 6.6,-6.2 -0.51,1.89 -2.46,3.36 -6.6,4.09 z"
     opacity="0.2"
     id="path161" />
  <circle
     cx="692.23755"
     cy="352.57999"
     r="102.23"
     fill="#2dd23a"
     id="circle163" />
  <circle
     cx="583.51752"
     cy="324.64999"
     r="102.23"
     fill="#2dd23a"
     id="circle165" />
  <circle
     cx="463.83752"
     cy="325.64999"
     r="102.23"
     fill="#2dd23a"
     id="circle167" />
  <circle
     cx="424.93756"
     cy="352.57999"
     r="102.23"
     fill="#2dd23a"
     id="circle169" />
  <circle
     cx="359.10754"
     cy="361.56"
     r="102.23"
     fill="#2dd23a"
     id="circle171" />
  <circle
     cx="332.17755"
     cy="280.76999"
     r="102.23"
     fill="#2dd23a"
     id="circle173" />
  <circle
     cx="362.09753"
     cy="187.00999"
     r="102.23"
     fill="#2dd23a"
     id="circle175" />
  <circle
     cx="418.94751"
     cy="187.00999"
     r="102.23"
     fill="#2dd23a"
     id="circle177" />
  <circle
     cx="451.86755"
     cy="145.12"
     r="102.23"
     fill="#2dd23a"
     id="circle179" />
  <circle
     cx="535.64752"
     cy="191"
     r="102.23"
     fill="#2dd23a"
     id="circle181" />
  <circle
     cx="731.13751"
     cy="280.76999"
     r="102.23"
     fill="#2dd23a"
     id="circle183" />
  <circle
     cx="672.28754"
     cy="229.89999"
     r="102.23"
     fill="#2dd23a"
     id="circle185" />
  <circle
     cx="634.38751"
     cy="179.03"
     r="102.23"
     fill="#2dd23a"
     id="circle187" />
  <circle
     cx="562.57751"
     cy="102.23"
     r="102.23"
     fill="#2dd23a"
     id="circle189" />
  <circle
     cx="696.22754"
     cy="187.00999"
     r="102.23"
     fill="#2dd23a"
     id="circle191" />
  <path
     d="m 794.01754,203.02 c 0,0 -95.21,-45.15 -152.82,34.87"
     opacity="0.1"
     id="path193" />
  <path
     d="m 543.93754,111.55 c 0,0 -105.32,-3.18 -126,93.22"
     opacity="0.1"
     id="path195" />
  <path
     d="m 413.01754,320.71 c 0,0 -95.21,-45.16 -152.82,34.84"
     opacity="0.1"
     id="path197" />
  <path
     d="m 696.0116,644.11813 a 11.67,11.67 0 0 0 3.83,-5.78 c 0.5,-2.3 -0.48,-5.05 -2.68,-5.89 -2.46,-0.94 -5.09,0.76 -7.08,2.49 -1.99,1.73 -4.28,3.69 -6.89,3.32 a 10.48,10.48 0 0 0 3.24,-9.81 4.1,4.1 0 0 0 -0.9,-2 c -1.37,-1.46 -3.84,-0.83 -5.48,0.32 -5.2,3.66 -6.65,10.72 -6.68,17.08 -0.52,-2.29 -0.08,-4.68 -0.1,-7 -0.02,-2.32 -0.66,-5 -2.64,-6.22 a 8,8 0 0 0 -4,-0.95 c -2.34,-0.09 -4.94,0.15 -6.54,1.86 -2,2.12 -1.47,5.69 0.26,8 1.73,2.31 4.35,3.8 6.77,5.42 a 15,15 0 0 1 4.84,4.61 4.57,4.57 0 0 1 0.36,0.82 h 14.65 a 40.83,40.83 0 0 0 9.04,-6.27 z"
     fill="#2dd23a"
     id="path221" />
  <path
     d="m 440.97754,726.87 c 0,0 -1,15.66 1,18.26 0,0 -45.92,8.35 -51.66,5.74 -5.74,-2.61 -3.13,-6.78 0,-8.35 3.13,-1.57 18.79,-7.31 20.87,-18.26 0,0 -6.78,-3.13 15.13,1 21.91,4.13 14.66,1.61 14.66,1.61 z"
     fill="#dc9ba3"
     id="path223"
     style="fill:#c6af9d;fill-opacity:1" />
  <path
     d="m 619.96754,575.01 c 0,0 -5.74,9.39 -2.09,27.66 3.65,18.27 -9.39,18.26 -9.39,18.26 h -26.08 l -8.87,-23 12.52,1 c 0,0 8.35,-2.09 4.7,-21.4 z"
     fill="#ffd2d9"
     id="path227"
     style="fill:#edc6ab;fill-opacity:1" />
  <path
     d="m 541.69754,553.1 c 4,12.71 9,28.19 11.67,36.44 l 1.9,5.83 17.22,-17.74 c 0,0 -0.76,-1.76 -1.89,-4.22 -2.52,-5.46 -6.91,-14.37 -9.07,-15.09 0,0 24,-1.57 31.31,4.17 7.31,5.74 5.22,-15.66 5.22,-15.66 0,0 -14.09,-1 -19.31,-4.17 -5.22,-3.17 -33.4,-6.26 -33.4,-6.26 0,0 -9.39,-1.57 -3.65,16.7 z"
     fill="#ffd2d9"
     id="path229"
     style="fill:#edc6ab;fill-opacity:1" />
  <path
     d="m 385.13754,706.55 3.65,26.61 9.39,-1 c 0,0 0.57,-0.54 1.53,-1.4 2.53,-2.23 7.8,-6.6 12.84,-9 a 15.73,15.73 0 0 1 5.46,-1.63 l -10.44,-15.66 a 57.66,57.66 0 0 1 -7.79,2.31 37.61,37.61 0 0 1 -8.39,1 15.32,15.32 0 0 1 -6.25,-1.23 z"
     fill="#ffd2d9"
     id="path231"
     style="fill:#f5d5bc;fill-opacity:1" />
  <path
     d="m 411.22754,725.31 c 4.7,4.17 26.09,-4.7 29.75,8.87 l 3.36,-12.87 10.35,-39.6 1.42,-5.45 8.62,-0.37 98.93,-4.22 5.6,-0.24 3,-0.13 -3.92,-1.94 -26.09,-12.93 c 0,0 -9.4,-0.66 -22.36,-2.44 v 0 c -19.65,-2.69 -47.49,-8 -63.21,-17.39 -26.09,-15.66 -36,37.05 -36,37.05 0,0 -4,13.37 -7,26.55 a 153.76,153.76 0 0 0 -3.15,17.25 c -0.45,4.03 -0.31,6.95 0.7,7.86 z"
     fill="#e9e9ef"
     id="path233"
     style="fill:#94b3bd;fill-opacity:1" />
  <path
     d="m 399.78754,706.74 9.13,10.71 3.64,4.27 a 15.73,15.73 0 0 1 5.46,-1.63 l -10.44,-15.66 a 57.66,57.66 0 0 1 -7.79,2.31 z"
     opacity="0.1"
     id="path237" />
  <path
     d="m 400.27754,705.48 10.21,12 4.92,5.77 v 1.57 c 6,1.39 24.79,-2.57 28.93,-3.48 l 0.81,-0.18 c 12,0.52 56.36,-25.57 56.36,-25.57 0,0 48.53,8.35 72,6.26 13.11,-1.17 16.79,-5.91 17.48,-9.88 a 10.29,10.29 0 0 0 -0.78,-5.78 l -21,-14.75 -2.78,-2 -4.44,-3.13 c 0,0 -7.72,-1.75 -17.52,-3.91 v 0 c -15.32,-3.38 -35.73,-7.77 -39.86,-8.08 -6.78,-0.52 -24,5.22 -33.92,16.7 a 29.31,29.31 0 0 1 -5.72,4.67 l -0.27,0.18 c -2.79,1.85 -6.22,3.81 -10,5.82 -12.63,6.65 -29.47,13.8 -41.05,18.49 -7.92,3.23 -13.37,5.3 -13.37,5.3 z"
     fill="#e9e9ef"
     id="path239"
     style="fill:#a2c1d2;fill-opacity:1" />
  <path
     d="m 385.13754,706.55 3.65,26.61 9.39,-1 c 0,0 0.57,-0.54 1.53,-1.4 -2.08,0 -5.51,-0.55 -6.23,-4.86 0,0 3.62,-12.65 -2.09,-18.1 a 15.32,15.32 0 0 1 -6.25,-1.25 z"
     opacity="0.1"
     id="path241" />
  <path
     d="m 392.40754,725.83 c 0,0 5.22,-18.26 -6.78,-20.35 l -19.83,7.83 -23,1.57 c 0,0 -6,9.79 3.61,20.77 a 29.52,29.52 0 0 0 20.94,9.9 l 25.06,1.15 7.87,-16.15 c 0,0 -6.79,1.54 -7.87,-4.72 z"
     fill="#dc9ba3"
     id="path243"
     style="fill:#c6af9d;fill-opacity:1" />
  <path
     d="m 519.85754,653.99 c 2.63,0.77 13.51,4 24.65,8.43 v 0 a 137.31,137.31 0 0 1 16.06,7.41 c 1.08,0.61 2.11,1.22 3.08,1.83 a 26.56,26.56 0 0 1 6.73,5.64 c 6.44,8.33 15.9,12.82 20.61,14.65 a 10.29,10.29 0 0 0 -0.78,-5.78 l -21,-14.75 3,-0.13 -3.92,-1.94 2.35,-0.15 -28.44,-12.79 c 0,0 -9.38,-0.64 -22.34,-2.42 z"
     opacity="0.1"
     id="path245" />
  <path
     d="m 553.40754,589.55 1.9,5.83 17.22,-17.74 c 0,0 -0.76,-1.76 -1.89,-4.22 -2.23,4.59 -12.62,12.65 -17.23,16.13 z"
     opacity="0.1"
     id="path247" />
  <path
     d="m 615.49754,598.2 a 30.34,30.34 0 0 0 1.35,-5.44 l 22.43,7.79 c 0,0 15.39,11.74 13.83,37.31 0,0 -19,-7 -27.4,1.3 l -0.17,1.47 a 67.84,67.84 0 0 1 -18.4,38.82 c -4.15,4.36 -8.06,9.27 -10.13,14 0,0 -14.61,-4.17 -23.48,-15.66 -8.87,-11.49 -51.12,-23.45 -51.12,-23.45 0,0 22.44,0.52 25.57,-7.31 3.13,-7.83 13.57,-24.53 9.92,-37.57 -3.65,-13.04 -5.74,-17.22 -5.74,-17.22 0,0 21.4,-15.13 19.83,-19.83 l 13.57,15.66 6.26,2.09 a 10,10 0 0 0 -0.74,3.82 c -0.36,14.17 19.66,17.57 24.42,4.22 z"
     fill="#cedad5"
     id="path249"
     style="fill:#23232a;fill-opacity:1" />
  <path
     d="m 591.53754,584.48 a 54.1,54.1 0 0 0 -0.79,-5.81 l 29.22,-2.61 c 0,0 -2,1.75 -2.9,8.27 -3.43,2 -7.43,4.78 -11.71,4.78 a 22.86,22.86 0 0 1 -13.82,-4.63 z"
     opacity="0.1"
     id="path251" />
  <circle
     cx="605.09753"
     cy="565.35999"
     r="22.959999"
     fill="#ffd2d9"
     id="circle253"
     style="fill:#edc6ab;fill-opacity:1" />
  <path
     d="m 622.05754,571.36 h -3.13 v -8.87 l -3.13,-9.39 c 0,0 -15.66,-7.31 -23,-5.74 l -5.7,5.19 c 0,0 -1.57,-12.52 7.83,-17.22 9.4,-4.7 26.09,-2.61 30.27,1 4.18,3.61 11,9.92 5.74,27.14 l -1.53,4.24 c 0,0 -6.31,-2.09 -7.35,3.65 z"
     fill="#844f6e"
     id="path255"
     style="fill:#30313a;fill-opacity:1" />
  <g
     opacity="0.05"
     id="g265"
     transform="translate(-247.71246)">
    <path
       d="m 858.09,642.86 -1.71,-0.57 -7.88,-9.09 a 2.22,2.22 0 0 0 0.05,-1.34 z"
       transform="translate(-28.88,-59.45)"
       id="path257" />
    <path
       d="m 869.07,659.7 a 11.82,11.82 0 0 1 -7.17,-11.5 c 0,-0.31 0,-0.6 0,-0.88 l 0.16,0.19 6.26,2.09 a 10,10 0 0 0 -0.74,3.82 12.47,12.47 0 0 0 1.49,6.28 z"
       transform="translate(-28.88,-59.45)"
       id="path259" />
    <path
       d="m 808.2,713.36 c 13.08,4.55 30.79,11.72 36.18,18.69 l 0.4,0.5 c -14.33,-9.83 -45.8,-18.77 -45.8,-18.77 a 81.34,81.34 0 0 0 9.22,-0.42 z"
       transform="translate(-28.88,-59.45)"
       id="path261" />
    <path
       d="m 867.86,747.71 c 2.07,-4.71 6,-9.63 10.13,-14 a 67.84,67.84 0 0 0 18.4,-38.82 l 0.17,-1.47 c 8.35,-8.35 27.4,-1.3 27.4,-1.3 1,-16.22 -4.84,-26.87 -9.23,-32.49 l 1.15,0.4 c 0,0 15.39,11.74 13.83,37.31 0,0 -19,-7 -27.4,1.3 l -0.17,1.47 a 67.84,67.84 0 0 1 -18.4,38.82 c -4.15,4.36 -8.06,9.27 -10.13,14 0,0 -12.72,-3.64 -21.62,-13.44 a 54,54 0 0 0 15.87,8.22 z"
       transform="translate(-28.88,-59.45)"
       id="path263" />
  </g>
  <path
     d="m 597.00754,627.2 c 0,0 25,36 38.09,46.44 13.09,10.44 16.7,-4.7 16.7,-4.7 v -33.39 l -23,-2.61 -0.25,3.17 -0.28,3.62 -21.4,-23 c 0,0 -21.4,-19.31 -25.57,-7.83 -4.17,11.48 15.71,18.3 15.71,18.3 z"
     fill="#ffd2d9"
     id="path267"
     style="fill:#edc6ab;fill-opacity:1" />
  <path
     d="m 628.59754,636.11 a 49.72,49.72 0 0 0 9.9,4.4 c 4.93,1.52 10.58,-0.08 13.31,-1.06 v -3.9 l -23,-2.61 z"
     opacity="0.1"
     id="path269" />
  <path
     d="m 652.06754,632.16 1.34,5.59 c 0,0 -8.16,3.8 -14.94,1.72 a 59.33,59.33 0 0 1 -13,-6.26 c -1,-0.52 4.17,-6.26 4.17,-6.26 z"
     fill="#cedad5"
     id="path271"
     style="fill:#23232a;fill-opacity:1" />
  <path
     d="m 501.76754,695.82 a 42.39,42.39 0 0 0 -11.48,-6.27 41,41 0 0 1 -11,-5.74"
     opacity="0.1"
     id="path273" />
  <path
     d="m 342.86754,714.87 0.85,-0.06 c -1.24,3.15 -3,10.85 4.32,19.26 a 29.52,29.52 0 0 0 20.87,9.89 l 24.3,1.14 -0.78,1.6 -25.08,-1.15 a 29.52,29.52 0 0 1 -20.87,-9.89 c -9.61,-11 -3.61,-20.79 -3.61,-20.79 z"
     fill="#fff"
     opacity="0.2"
     id="path275"
     style="opacity:0.180164;fill:#000000;fill-opacity:1" />
  <path
     d="m 431.47754,737.24 q -0.11,0.47 -0.25,0.93 c -0.51,-0.29 -1.24,-0.85 0.25,-0.93 z"
     fill="lime"
     opacity="0.05"
     id="path277"
     style="fill:#c3c9ed;fill-opacity:1" />
  <path
     d="m 390.40754,749.31 c 5.35,2.43 45.57,-4.65 51,-5.63 a 4.06,4.06 0 0 0 0.62,1.45 c 0,0 -45.92,8.35 -51.66,5.74 -3,-1.34 -3.69,-3.1 -3.29,-4.7 0.33,1.12 1.27,2.23 3.33,3.14 z"
     fill="#fff"
     opacity="0.2"
     id="path279"
     style="opacity:0.131555;fill:#000000;fill-opacity:1" />
  <path
     d="m 590.50754,554.39 a 35.56,35.56 0 0 1 -13.24,-14.2 3.2,3.2 0 0 1 -0.49,-2.19 c 0.37,-1.42 2.22,-1.67 3.56,-2.28 2.49,-1.14 3.54,-4 5.17,-6.22 a 12.45,12.45 0 0 1 12.17,-4.67 c 2.38,0.48 4.58,1.66 7,2 5.18,0.76 10.82,-2.38 15.47,0 2.12,1.09 3.56,3.14 4.82,5.16 3.17,5.07 7.14,10.46 4.26,16.38 -1.65,3.4 -4.29,6.22 -8,7.21 -3.71,0.99 -8,0.16 -11.78,-0.24 -3.1,-0.34 -6.36,-1 -9.48,-0.72 -3.68,0.38 -5.97,1.87 -9.46,-0.23 z"
     opacity="0.1"
     id="path281" />
  <path
     d="m 590.50754,553.34 a 35.56,35.56 0 0 1 -13.24,-14.2 3.2,3.2 0 0 1 -0.49,-2.19 c 0.37,-1.42 2.22,-1.67 3.56,-2.28 2.49,-1.14 3.54,-4 5.17,-6.22 a 12.45,12.45 0 0 1 12.17,-4.67 c 2.38,0.48 4.58,1.66 7,2 5.18,0.76 10.82,-2.38 15.47,0 2.12,1.09 3.56,3.14 4.82,5.16 3.17,5.07 7.14,10.46 4.26,16.38 -1.65,3.4 -4.29,6.22 -8,7.21 -3.71,0.99 -8,0.16 -11.78,-0.24 -3.1,-0.34 -6.36,-1 -9.48,-0.72 -3.68,0.38 -5.97,1.88 -9.46,-0.23 z"
     fill="#844f6e"
     id="path283"
     style="fill:#30313a;fill-opacity:1" />
  <path
     d="m 80.160808,693.57687 c 0,0 34.430002,-6.89 43.620002,-16.07 9.19,-9.18 50.5,-25.25 55.09,-13.77 4.59,11.48 62,50.5 23,57.39 -39,6.89 -91.82,9.18 -103.3,4.59 -11.48,-4.59 -18.410002,-32.14 -18.410002,-32.14 z"
     fill="#a8a8a8"
     id="path11648" />
  <path
     d="m 202.52892,716.51057 c -39,6.89 -91.82,9.18 -103.3,4.59 -8.74,-3.5 -14.82,-20.29999 -17.220002,-28.11 l -1.15,0.24 c 0,0 6.890002,27.55 18.360002,32.14 11.47,4.59001 64.28,2.3 103.3,-4.59 11.27,-2 14.49,-6.66 13.27,-12.56 -0.95,3.85001 -4.88,6.82001 -13.26,8.29 z"
     opacity="0.2"
     id="path11650" />
  <path
     d="m 119.2755,661.20364 c 0,10.76 0.6,17.87 0.6,17.87 0,0 15.37,0.86 14.94,15.11 -0.43,14.25 59.74,17.27 59.74,17.27 0,0 0,-0.15 0,-0.43 v 0 c 0,0 0,-1.15 0,-3.23 5.72,0.85 11.84,1.54 15.27,1.21 -0.23,1.11 -0.5,2.28 -0.76,3.32 -0.28,0.28 -5.82,5.88 -5.64,11.84 -0.1,3 1.26,6.08 5.66,8.64 12.7,7.42 52.25,3.29 52.25,3.29 6,-3.94 8,-7.29 7.89,-10.07 0.19,-4.1 -3.9,-7 -7.65,-8.87 a 13.5,13.5 0 0 0 -9.36,-1 44.92,44.92 0 0 1 -12.91,0.95 20,20 0 0 1 0.67,-2.54 c 4.06,1.15 6.86,2 6.86,2 0,0 21.08,-11.22 12.3,-29.35 a 14.85,14.85 0 0 0 -6,-5.93 c 6.77,-11.67 13.2,-25.41 12.56,-34.65 -1.07,-15.42 -31.69,-12.06 -43.16,-10.25 l -22.11,-21.69 c 0,-16 0.49,-34.37 -1,-38.35 -2.64,-6.91 -1.76,-6 -3.51,-9.06 l -0.07,-0.11 c -1,-1.62 -3.72,-4.19 -4.42,-3.84 a 44.62,44.62 0 0 1 0.13,-9.55 27.25,27.25 0 0 0 18.78,-25.78 26.68,26.68 0 0 0 -3,-12.31 l 0.3,-0.13 -2.9,-14.26 a 2.37,2.37 0 0 1 0.13,-1.85 c 0.3,-0.4 0.81,-0.52 1.2,-0.8 a 2.76,2.76 0 0 0 0.47,-3.36 4.58,4.58 0 0 0 -1.09,-1.39 c -2.44,-2.77 -7.63,-1.78 -10.82,-2.19 -4.32,-0.55 -8.85,-1.35 -12.94,0.79 a 21.38,21.38 0 0 1 -2.75,1.44 11.84,11.84 0 0 1 -4,0.38 40.4,40.4 0 0 0 -7.26,0.65 c -3.12,-1.13 -6.79,-0.13 -9.68,1.6 a 21.35,21.35 0 0 0 -10.16,19.52 41.36,41.36 0 0 0 1.39,7.15 l 5.35,20.85 a 13.59,13.59 0 0 0 2,4.88 5.75,5.75 0 0 0 0.8,0.86 4.63,4.63 0 0 0 4.26,1.62 2.89,2.89 0 0 0 0.59,-0.21 29.57,29.57 0 0 1 -1.27,6.46 c -6.12,1.78 -15,8 -25.66,26 -13.68,23.06 -15.96,57.06 -16.02,77.5 z m 87.3,-14.64 z"
     fill="url(#d91c7811-87ec-4fc8-aa52-46c2543d8327-516)"
     id="path285"
     style="fill:url(#d91c7811-87ec-4fc8-aa52-46c2543d8327-516)" />
  <rect
     x="-232.30547"
     y="-691.19373"
     width="59.84"
     height="42.860001"
     transform="scale(-1)"
     fill="#5f5d7e"
     id="rect287" />
  <path
     d="m 217.4555,638.99364 c 0,0 44.56,-9.34 45.83,9.34 1.27,18.68 -26.31,56 -26.31,56 l -25,-5.09 7.21,-28.86 c 0,0 -28.43,-6.37 -30.13,-6.79 -1.7,-0.42 28.4,-24.6 28.4,-24.6 z"
     fill="#5f5d7e"
     id="path289"
     style="fill:#353161;fill-opacity:1" />
  <path
     d="m 240.8055,709.44364 c 0,0 -4.24,8.06 -3,11.46 1.24,3.4 -30.13,-4.67 -30.13,-4.67 0,0 2.55,-9.76 2.12,-11 -0.43,-1.24 31.01,4.21 31.01,4.21 z"
     fill="#5f5d7e"
     id="path293" />
  <path
     d="m 213.2155,654.27364 3.12,2.82 2,1.82 c 0,0 10.19,16.55 23.34,6.37 13.15,-10.18 -10.21,-17.8 -14.88,-18.19 a 5.86,5.86 0 0 1 -4.4,-3.19 14,14 0 0 1 -1.54,-4 z"
     fill="#fdc2cc"
     id="path295"
     style="fill:#edd096;fill-opacity:1" />
  <path
     d="m 240.8055,709.44364 c 0,0 -4.24,8.06 -3,11.46 1.24,3.4 -30.13,-4.67 -30.13,-4.67 0,0 2.55,-9.76 2.12,-11 -0.43,-1.24 31.01,4.21 31.01,4.21 z"
     opacity="0.1"
     id="path299" />
  <path
     d="m 213.2155,654.27364 3.12,2.82 c 0,-5.44 3.61,-10.44 6.08,-13.25 a 14,14 0 0 1 -1.54,-4 z"
     opacity="0.1"
     id="path301" />
  <path
     d="m 194.5455,611.41364 29.28,29.28 c 0,0 -10.19,8.91 -8.06,18.25 l -21.22,-23.77 z"
     fill="#c4c8e2"
     id="path303"
     style="fill:#797c96;fill-opacity:1" />
  <path
     d="m 194.5455,569.39364 c 0,0 0,8.91 -7.64,6.37 -7.64,-2.54 -1.7,100.58 -1.7,100.58 0,0 22.07,-16.55 17.82,-28.43 -4.25,-11.88 -5.09,-20.82 -4.69,-32.68 0.4,-11.86 -3.79,-45.84 -3.79,-45.84 z"
     fill="#d39999"
     id="path307"
     style="fill:#bbbdcf;fill-opacity:1" />
  <path
     d="m 194.1155,545.63364 c 0,0 -6.37,17.4 0,30.56 6.37,13.16 -37.78,-7.22 -37.78,-7.22 0,0 9.76,-4.67 6.37,-27.16 z"
     fill="#fdc2cc"
     id="path309"
     style="fill:#fbe2b6;fill-opacity:1" />
  <path
     d="m 197.9355,624.99364 a 125.19,125.19 0 0 0 0,14 l 10.09,11.3 a 85.06,85.06 0 0 0 -5,-9.17 c -1.57,-2.43 -1.92,-12.12 -2,-23.18 l -3.7,-3.7 c 0.39,5.97 0.61,10.75 0.61,10.75 z"
     opacity="0.1"
     id="path311" />
  <path
     d="m 191.3355,567.09364 c -0.47,-2.23 3.21,1.13 4.39,3.08 l 0.06,0.11 c 1.7,3 0.85,2.12 3.4,8.91 2.55,6.79 -0.85,56 3,62 a 95.5,95.5 0 0 1 6.79,13.16 l -6.79,-2.55 c 0,0 -2.55,-7.64 -4.24,-9.34 -1.69,-1.7 -0.85,-17.4 -0.85,-17.4 0,0 -1.27,-27.16 -2.55,-33.1 -1.01,-4.78 -2.21,-20.18 -3.21,-24.87 z"
     fill="#c4c8e2"
     id="path313"
     style="fill:#797c96;fill-opacity:1" />
  <path
     d="m 181.3855,672.94364 c 0,0 67.05,-2.55 75.54,15.28 8.49,17.83 -11.88,28.87 -11.88,28.87 0,0 -28.43,-8.91 -34.8,-7.64 -6.37,1.27 -28.86,-3.4 -28.86,-3.4 z"
     fill="#5f5d7e"
     id="path317"
     style="fill:#353161;fill-opacity:1" />
  <path
     d="m 218.7355,661.91364 c 0,0 15.28,-8.49 23.77,-3 8.49,5.49 7.64,20.37 -4.24,20.79 -11.88,0.42 -18.25,-6.79 -18.25,-6.79 z"
     fill="#fdc2cc"
     id="path319"
     style="fill:#fbe2b6;fill-opacity:1" />
  <path
     d="m 170.7755,561.33364 c 0,0 -13.58,-9.34 -33.53,25 -19.95,34.34 -14.85,93.36 -14.85,93.36 0,0 14.85,0.85 14.43,14.85 -0.42,14 57.72,17 57.72,17 0,0 -0.85,-139.2 -6.79,-143 -5.94,-3.8 -16.98,-7.21 -16.98,-7.21 z"
     fill="#c4c8e2"
     id="path321"
     style="fill:#797c96;fill-opacity:1" />
  <path
     d="m 170.7155,586.65364 a 18.59,18.59 0 0 1 7.72,15.12 c 0.07,12.71 0.38,40.1 1.67,45.28 1.7,6.79 27.16,15.7 40.32,15.28 0,0 6.37,11.88 -1.27,14.43 -7.64,2.55 -54.32,0 -54.32,0 0,0 -18.25,-20.79 -18.67,-39 -0.42,-18.21 -3,-38.62 0,-42.44 2.45,-3.23 12.7,-17.03 24.55,-8.67 z"
     opacity="0.1"
     id="path323" />
  <path
     d="m 171.5655,584.95364 a 18.59,18.59 0 0 1 7.77,15.14 c 0.07,12.71 0.38,40.1 1.67,45.28 1.7,6.79 27.16,15.7 40.32,15.28 0,0 6.37,11.88 -1.27,14.43 -7.64,2.55 -54.32,0 -54.32,0 0,0 -18.25,-20.79 -18.67,-39 -0.42,-18.21 -3,-38.62 0,-42.44 2.4,-3.21 12.65,-17.05 24.5,-8.69 z"
     fill="#c4c8e2"
     id="path325"
     style="fill:#797c96;fill-opacity:1" />
  <path
     d="m 259.2855,717.60364 c 6.09,3 13.15,9.18 -0.23,18.57 0,0 -38.19,4.24 -50.5,-3.4 -12.31,-7.64 0,-19.95 0,-19.95 0,0 28.17,7.49 41.69,3.83 a 12.83,12.83 0 0 1 9.04,0.95 z"
     fill="#4c4c56"
     id="path327"
     style="fill:#3a3a42;fill-opacity:1" />
  <path
     d="m 172.6855,616.71364 c 0,0 2.12,26.74 16.13,32.68"
     opacity="0.1"
     id="path331" />
  <path
     d="m 193.6955,548.60364 a 54.46,54.46 0 0 0 -2.51,11.34 c -2.68,0.9 -6.6,-1.36 -9.59,-1.36 -7.78,0 -10,-8.7 -14.85,-14 0,-2.36 -4,3.15 -4.46,0.21 z"
     opacity="0.1"
     id="path333" />
  <path
     d="m 156.3355,531.62364 a 26.86,26.86 0 0 0 0.81,6.58 l 0.09,0.34 a 26.87,26.87 0 1 0 -0.9,-6.91 z"
     fill="#fdc2cc"
     id="path335"
     style="fill:#fbe2b6;fill-opacity:1" />
  <path
     d="m 137.2555,586.79364 a 101,101 0 0 1 9.49,-13.88 108,108 0 0 0 -7.79,11.76 c -19.95,34.38 -14.85,93.36 -14.85,93.36 0,0 14.85,0.85 14.43,14.85 -0.38,12.57 46.41,16.25 56,16.87 0,1.44 0,2.22 0,2.22 0,0 -58.14,-3 -57.72,-17 0.42,-14 -14.43,-14.85 -14.43,-14.85 0,0 -5.05,-58.95 14.87,-93.33 z"
     opacity="0.1"
     id="path337" />
  <path
     d="m 159.7255,501.09364 c 2.8,-1.69 6.34,-2.68 9.36,-1.57 a 38.38,38.38 0 0 1 7,-0.64 11.25,11.25 0 0 0 3.82,-0.37 20.53,20.53 0 0 0 2.66,-1.41 c 3.95,-2.1 8.33,-1.31 12.5,-0.77 3.39,0.44 9.12,-0.79 11.08,3.09 a 2.75,2.75 0 0 1 -0.45,3.3 c -0.38,0.28 -0.87,0.39 -1.16,0.79 a 2.37,2.37 0 0 0 -0.13,1.82 l 2.8,14 a 10.52,10.52 0 0 1 -8.33,0.38 23.44,23.44 0 0 1 -2.2,-1 c -2.09,1.36 -4.25,0.33 -6.78,0.87 a 7.73,7.73 0 0 0 -3.82,2.5 22.24,22.24 0 0 0 -5.67,11.29 c -0.28,1.59 -0.65,3.55 -2.19,4 a 10.05,10.05 0 0 1 -1.77,0.18 c -2.78,0.36 -3.92,3.65 -5.71,5.82 -2.18,2.64 -6.09,4.36 -6.33,7.78 -0.06,0.88 0.13,1.85 -0.36,2.59 a 2.18,2.18 0 0 1 -1.36,0.84 4.59,4.59 0 0 1 -4.46,-2 13.49,13.49 0 0 1 -1.89,-4.79 l -5.17,-20.5 a 41.31,41.31 0 0 1 -1.35,-7 21.1,21.1 0 0 1 9.91,-19.2 z"
     opacity="0.1"
     id="path339" />
  <path
     d="m 159.3355,500.71364 c 2.8,-1.69 6.34,-2.68 9.36,-1.57 a 38.38,38.38 0 0 1 7,-0.64 11.25,11.25 0 0 0 3.82,-0.37 20.53,20.53 0 0 0 2.66,-1.41 c 3.95,-2.1 8.33,-1.31 12.5,-0.77 3.39,0.44 9.12,-0.79 11.08,3.09 a 2.75,2.75 0 0 1 -0.45,3.3 c -0.38,0.28 -0.87,0.39 -1.16,0.79 a 2.37,2.37 0 0 0 -0.13,1.82 l 2.8,14 a 10.52,10.52 0 0 1 -8.33,0.38 23.44,23.44 0 0 1 -2.2,-1 c -2.09,1.36 -4.25,0.33 -6.78,0.87 a 7.73,7.73 0 0 0 -3.82,2.5 22.24,22.24 0 0 0 -5.67,11.29 c -0.28,1.59 -0.65,3.55 -2.19,4 a 10.05,10.05 0 0 1 -1.77,0.18 c -2.78,0.36 -3.92,3.65 -5.71,5.82 -2.18,2.64 -6.09,4.36 -6.33,7.78 -0.06,0.88 0.13,1.85 -0.36,2.59 a 2.18,2.18 0 0 1 -1.36,0.84 4.59,4.59 0 0 1 -4.46,-2 13.49,13.49 0 0 1 -1.89,-4.79 l -5.17,-20.5 a 41.31,41.31 0 0 1 -1.35,-7 21.1,21.1 0 0 1 9.91,-19.2 z"
     fill="#865a61"
     id="path341"
     style="fill:#847356;fill-opacity:1" />
  <path
     d="m 129.25984,710.15602 c 0,0 -17.65156,-3.5076 -22.35588,-8.18099 -4.70437,-4.67337 -25.894492,-12.85438 -28.246652,-7.01522 -2.35216,5.83915 -31.77487,25.70874 -11.77114,29.20605 20.003722,3.49729 47.074292,4.67338 52.954692,2.34185 5.88042,-2.33154 9.41898,-16.35169 9.41898,-16.35169 z"
     fill="#a8a8a8"
     id="path11660"
     style="stroke-width:1.03165" />
  <path
     d="m 66.887638,722.00242 c 20.003212,3.50753 45.373132,4.67326 51.253392,2.34179 4.47725,-1.78471 9.54808,-10.31625 10.78603,-14.30864 l 0.33265,0.1238 c 0,0 -3.52816,14.01978 -9.41873,16.36157 -5.89058,2.34179 -32.95013,1.16573 -52.953342,-2.34179 -5.7771,-1.03163 -7.4277,-3.38373 -6.80872,-6.39608 0.52613,1.94978 2.53779,3.46626 6.80872,4.21935 z"
     opacity="0.2"
     id="path11662"
     style="stroke-width:1.03162"
     sodipodi:nodetypes="ccccsccc" />
  <metadata
     id="metadata14436">
    <rdf:RDF>
      <cc:Work
         rdf:about="">
        <dc:title>friendship</dc:title>
      </cc:Work>
    </rdf:RDF>
  </metadata>
  <path
     d="m 90.03246,691.39236 c 0,0 -6.21,-21.08 1.16,-36.6 a 33.3,33.3 0 0 0 2.69,-20.89 56,56 0 0 0 -3,-9.81"
     fill="none"
     stroke="#535461"
     stroke-miterlimit="10"
     stroke-width="2"
     id="path16660" />
  <path
     d="m 95.68785,617.24233 c 0,2.58 -4.68,10.08 -4.68,10.08 0,0 -4.65,-7.5 -4.65,-10.08 a 4.68,4.68 0 1 1 9.36,0 z"
     fill="#2dd23a"
     id="path16662" />
  <path
     d="m 103.96301,632.97173 c -1.4,2.17 -9.4,5.92 -9.4,5.92 0,0 0.15,-8.83 1.55,-11 a 4.68,4.68 0 1 1 7.85,5.09 z"
     fill="#2dd23a"
     id="path16664" />
  <path
     d="m 100.78761,656.6104 c -2.31,1.16 -11.1,0.36 -11.1,0.36 0,0 4.58,-7.55 6.89,-8.71 a 4.6801095,4.6801095 0 0 1 4.21,8.36 z"
     fill="#2dd23a"
     id="path16666" />
  <path
     d="m 98.50246,671.50236 c -2.08,1.54 -10.88,2.23 -10.88,2.23 0,0 3.24,-8.22 5.32,-9.75 a 4.68,4.68 0 0 1 5.56,7.52 z"
     fill="#2dd23a"
     id="path16668" />
  <path
     d="m 84.03246,635.03236 c 1.85,1.8 10.49,3.67 10.49,3.67 0,0 -2.11,-8.58 -4,-10.38 a 4.68,4.68 0 0 0 -6.52,6.71 z"
     fill="#2dd23a"
     id="path16670" />
  <path
     d="m 79.132463,656.65236 c 2.31,1.16 11.099997,0.36 11.099997,0.36 0,0 -4.58,-7.55 -6.89,-8.71 a 4.6801095,4.6801095 0 0 0 -4.209997,8.36 z"
     fill="#2dd23a"
     id="path16672" />
  <path
     d="m 77.252463,678.34236 c 2.08,1.54 10.879997,2.23 10.879997,2.23 0,0 -3.24,-8.22 -5.319997,-9.75 a 4.68,4.68 0 0 0 -5.56,7.52 z"
     fill="#2dd23a"
     id="path16674" />
  <path
     d="m 114.51565,696.4004 c -12.86,-2.27 -30.26,-3 -34.000005,-1.51 -2.88,1.15 -4.88,6.69 -5.67,9.26 l -0.38,-0.08 c 0,0 2.27,-9.08 6.05,-10.59 3.780005,-1.51 21.180005,-0.76 34.000005,1.51 3.71,0.66 4.77,2.19 4.37,4.14 -0.32,-1.24 -1.61,-2.22 -4.37,-2.73 z"
     opacity="0.2"
     id="path16678" />
</svg>
