<?xml version="1.0" standalone="no"?>
<!DOCTYPE svg PUBLIC "-//W3C//DTD SVG 20010904//EN"
 "http://www.w3.org/TR/2001/REC-SVG-20010904/DTD/svg10.dtd">
<svg version="1.0" xmlns="http://www.w3.org/2000/svg"
 width="500.000000pt" height="500.000000pt" viewBox="0 0 500.000000 500.000000"
 preserveAspectRatio="xMidYMid meet">
<metadata>
Created by potrace 1.14, written by Peter Selinger 2001-2017
</metadata>
<g transform="translate(0.000000,500.000000) scale(0.100000,-0.100000)"
fill="#000000" stroke="none">
<path d="M3170 4424 c-41 -18 -96 -68 -116 -106 -22 -43 -127 -345 -271 -783
-74 -225 -136 -411 -138 -413 -2 -2 -39 8 -83 22 -237 75 -542 73 -782 -6
-392 -128 -685 -482 -756 -916 -23 -138 -14 -352 20 -488 50 -201 143 -376
274 -516 490 -522 1332 -493 1833 64 129 143 180 208 284 368 142 216 240 344
319 418 76 70 134 103 227 127 92 24 121 38 169 81 63 57 84 105 85 190 0 61
-4 77 -30 120 -19 30 -49 60 -79 79 -42 26 -61 30 -130 33 -201 9 -422 -109
-611 -325 -43 -48 -153 -192 -245 -318 -92 -127 -199 -269 -236 -315 -96 -120
-230 -251 -303 -299 -249 -160 -603 -143 -847 42 -104 79 -198 220 -240 363
-22 73 -24 236 -5 313 37 148 112 272 226 379 127 119 283 182 449 182 108 0
184 -18 351 -81 128 -48 147 -53 225 -53 100 -1 143 16 205 80 61 62 97 140
155 329 28 94 121 388 205 655 85 267 157 504 161 527 15 95 -40 199 -129 242
-52 25 -136 27 -187 5z"/>
</g>
</svg>
