<?xml version="1.0" standalone="no"?>
<!DOCTYPE svg PUBLIC "-//W3C//DTD SVG 20010904//EN"
 "http://www.w3.org/TR/2001/REC-SVG-20010904/DTD/svg10.dtd">
<svg version="1.0" xmlns="http://www.w3.org/2000/svg"
 width="556.000000pt" height="556.000000pt" viewBox="0 0 556.000000 556.000000"
 preserveAspectRatio="xMidYMid meet">
<metadata>
Created by potrace 1.14, written by Peter Selinger 2001-2017
</metadata>
<g transform="translate(0.000000,556.000000) scale(0.100000,-0.100000)"
fill="#000000" stroke="none">
<path d="M1499 5556 c-2 -2 -33 -7 -69 -10 -130 -12 -179 -18 -226 -29 -12 -3
-39 -8 -59 -11 -38 -6 -137 -32 -165 -43 -8 -4 -17 -7 -20 -8 -92 -23 -256
-104 -365 -179 -73 -51 -245 -210 -245 -226 0 -4 -11 -20 -25 -36 -25 -29
-125 -189 -125 -200 0 -3 -14 -35 -30 -71 -17 -35 -30 -69 -30 -74 0 -5 -4
-17 -10 -27 -11 -20 -24 -66 -54 -192 -17 -73 -27 -134 -43 -265 -10 -75 -11
-1912 -1 -2015 4 -41 12 -109 17 -150 6 -41 14 -93 17 -115 3 -22 8 -47 11
-55 6 -15 7 -20 18 -78 22 -120 101 -306 184 -432 50 -76 214 -240 241 -240 6
0 10 -4 10 -8 0 -5 44 -30 98 -57 119 -59 120 -59 207 -85 39 -11 84 -25 100
-30 29 -8 201 -37 275 -46 82 -10 189 -15 410 -19 176 -3 246 -8 278 -19 46
-16 97 -49 122 -77 28 -31 75 -92 84 -108 5 -9 12 -18 16 -21 3 -3 17 -21 30
-40 13 -19 27 -37 30 -40 3 -3 44 -57 90 -120 47 -63 88 -117 93 -118 4 -2 7
-10 7 -18 0 -8 3 -14 8 -14 4 0 18 -17 32 -37 102 -152 224 -234 356 -239 110
-4 200 30 285 108 30 27 212 264 409 532 65 89 72 97 112 137 59 59 105 69
339 73 112 3 227 7 254 10 102 12 131 16 155 21 13 2 40 7 60 10 20 3 76 17
125 30 50 14 99 27 111 30 66 15 305 135 341 170 8 8 19 15 24 15 21 0 206
178 255 245 16 22 31 42 34 45 10 8 97 163 113 200 27 60 48 114 52 130 2 8
11 35 19 59 9 24 13 47 10 52 -3 5 -1 9 4 9 5 0 13 21 18 47 11 65 11 67 14
73 6 16 28 163 37 245 10 92 10 1894 0 1965 -5 30 -10 66 -13 80 -2 14 -9 54
-14 89 -6 36 -13 67 -15 71 -2 4 -7 20 -9 36 -11 56 -44 160 -77 239 -183 441
-514 695 -1039 796 -58 11 -125 23 -150 26 -52 6 -2714 15 -2721 9z"/>
</g>
</svg>
