<svg xmlns="http://www.w3.org/2000/svg" xmlns:xlink="http://www.w3.org/1999/xlink" xml:space="preserve" id="svg5" width="823.26758" height="259.03564" version="1.1" viewBox="0 0 217.82289 68.536514"><defs id="defs2"><linearGradient id="linearGradient147"><stop id="stop147" offset="0" style="stop-color:#9cf;stop-opacity:1"/><stop id="stop148" offset=".29635516" style="stop-color:#fff;stop-opacity:1"/></linearGradient><linearGradient id="linearGradient23"><stop id="stop22" offset=".0001" style="stop-color:#008040;stop-opacity:1"/><stop id="stop23" offset=".99989998" style="stop-color:#63e963;stop-opacity:1"/></linearGradient><linearGradient id="linearGradient9"><stop id="stop8" offset="0" style="stop-color:#fa8938;stop-opacity:1"/><stop id="stop9" offset="1" style="stop-color:#faca38;stop-opacity:1"/></linearGradient><linearGradient xlink:href="#linearGradient9" id="linearGradient144" x1="11.105691" x2="19.155231" y1="14.468366" y2="9.820961" gradientTransform="translate(181.94108 604.9098) scale(4.6705351)" gradientUnits="userSpaceOnUse"/><linearGradient xlink:href="#linearGradient23" id="linearGradient145" x1="211.29193" x2="301.67172" y1="762.6239" y2="672.24414" gradientTransform="translate(89.400233 201.67486) scale(.6451905)" gradientUnits="userSpaceOnUse"/><linearGradient xlink:href="#linearGradient147" id="linearGradient148" x1="52.941093" x2="52.941093" y1="46.772625" y2="31.754435" gradientUnits="userSpaceOnUse"/><style id="style6568">.cls-2{clip-path:url(#clip-path);fill:#aa392d}.cls-3{fill:#7c211a}.cls-4{fill:#e59973}.cls-5{fill:#2d2d2d}.cls-6{opacity:.2}.cls-7{opacity:.3}.cls-1{fill:none}.st1{stroke-linecap:round}.st2,.st3{stroke-linejoin:round;stroke-miterlimit:10}.st2{fill:none;stroke:#6a83ba;stroke-width:4;stroke-linecap:round}.st3{fill:#8a8aff;stroke:#8a8aff}.st3,.st4,.st5{stroke-width:2;stroke-linecap:round}.st4{fill:#6c3db7;stroke:#6c3db7;stroke-linejoin:round;stroke-miterlimit:10}.st5{fill:#a576ff;stroke:#a576ff}.st5,.st6,.st7{stroke-linejoin:round;stroke-miterlimit:10}.st6{fill:#f2bb41;stroke:#f2bb41;stroke-width:2;stroke-linecap:round}.st7{fill:#e08838;stroke:#e08838}.st7,.st8,.st9{stroke-width:2;stroke-linecap:round}.st8{fill:#1f992a;stroke:#1f992a;stroke-linejoin:round;stroke-miterlimit:10}.st9{fill:#5ec11e;stroke:#5ec11e}.st10,.st11,.st9{stroke-linejoin:round;stroke-miterlimit:10}.st10{fill:#e3faff;stroke:#e3faff;stroke-width:2;stroke-linecap:round}.st11{fill:#ff5093;stroke:#ff5093}.st11,.st12,.st13{stroke-width:2;stroke-linecap:round}.st12{fill:#b7257f;stroke:#b7257f;stroke-linejoin:round;stroke-miterlimit:10}.st13{fill:#5189e5;stroke:#5189e5}.st13,.st14,.st15{stroke-linejoin:round;stroke-miterlimit:10}.st14{fill:#6ebaff;stroke:#6ebaff;stroke-width:2;stroke-linecap:round}.st15{fill:#edd977;stroke:#edd977}.st15,.st16,.st17{stroke-width:2;stroke-linecap:round}.st16{fill:#8c43ff;stroke:#8c43ff;stroke-linejoin:round;stroke-miterlimit:10}.st17{fill:#5252ba;stroke:#5252ba}.st0,.st1,.st17,.st18,.st19{stroke-linejoin:round;stroke-miterlimit:10}.st18{fill:none;stroke:#e3faff;stroke-width:4;stroke-linecap:round}.st0,.st1,.st19{stroke-width:2}.st19{fill:#354c75;stroke:#354c75;stroke-linecap:round}.st0,.st1{stroke:#000}.st1{fill:#454545}.st0{stroke-linecap:round}.linesandangles_een{fill:#111918}.st0{fill:#000}</style><path id="rect144" d="M223.75488 162.30469h120.36133v58.945312H223.75488z"/></defs><g id="layer1" transform="translate(-220.51351 -628.88255)"><rect id="rect134" width="66.145836" height="66.145836" x="220.91566" y="630.58948" rx="13.229166" ry="13.229166" style="fill:url(#linearGradient145);fill-opacity:1;stroke-width:4.14708;stroke-dasharray:none"/><path id="path134" fill="#ffcc4d" d="M276.30672 664.17545c0 12.28455-9.95888 22.24343-22.24344 22.24343-12.28454 0-22.24342-9.95888-22.24342-22.24343s9.95888-22.24343 22.24342-22.24343c12.28456 0 22.24344 9.95888 22.24344 22.24343" style="fill:url(#linearGradient144);fill-opacity:1;stroke:#fff;stroke-width:0;stroke-miterlimit:4;stroke-dasharray:none;stroke-opacity:1"/><path id="path135" fill="#664500" d="M254.06328 667.88269c-4.4771 0-7.44783-.52149-11.1217-1.23574-.83908-.16189-2.47149 0-2.47149 2.47147 0 4.94299 5.67825 11.12172 13.59319 11.12172 7.91372 0 13.59321-6.17873 13.59321-11.12172 0-2.47147-1.63242-2.63459-2.4715-2.47147-3.67386.71425-6.6446 1.23574-11.12171 1.23574z" style="fill:#3e270f;fill-opacity:1;stroke:none;stroke-width:0;stroke-miterlimit:4;stroke-dasharray:none"/><path id="path136" fill="#fff" d="M243.76815 669.3239c1.42228.3514 4.79958 1.03028 10.29513 1.03028 5.35558 0 8.77694-.64473 10.26412-1.00281.48313-.12948.81514.14771.74394.56198-.28484 1.65706-2.09147 5.60583-10.8424 5.60583-8.95957 0-10.73171-3.98997-11.16079-5.59138-.1162-.43366.29374-.71275.7-.6039z" style="stroke-width:0;stroke-miterlimit:4;stroke-dasharray:none"/><path id="path137" fill="#e95f28" d="m251.19883 646.04527-5.61276.98984-2.89164-5.25564c-.31882-.57956-.97376-.88973-1.6213-.77605-.65124.11492-1.15789.63147-1.25923 1.28395l-.92062 5.92788-5.61276.98982c-.66113.11618-1.17149.64878-1.26169 1.31484-.0902.66607.26075 1.3136.86873 1.60276l5.02947 2.38747-.92433 5.94641c-.10257.66236.23358 1.31484.83165 1.61759.2212.11124.45846.16441.6945.16441.4041 0 .80323-.15813 1.10105-.45967l4.33993-4.4005 5.5831 2.65067c.60552.28669 1.32719.15199 1.78689-.33615.45971-.48811.55114-1.21596.22861-1.80294l-2.90152-5.2742 3.91113-3.96428c.47208-.47823.57957-1.20732.26817-1.80296-.31385-.59563-.97996-.91815-1.63736-.80323zm5.72891 0 5.61276.98984 2.89165-5.25564c.3188-.57956.97376-.88973 1.6213-.77605.65.11492 1.15665.63147 1.25799 1.28395l.92063 5.92788 5.61275.98982c.66236.11618 1.17273.64753 1.2617 1.31361.089.66607-.26077 1.31359-.86874 1.60275l-5.02947 2.38747.92432 5.94641c.10259.66237-.23358 1.31483-.83164 1.6176-.22121.11122-.45848.16444-.69448.16444-.40411 0-.80326-.15813-1.10106-.45974l-4.33994-4.40049-5.58311 2.65067c-.60551.28671-1.32718.152-1.78688-.33614-.45972-.48812-.55114-1.21598-.22862-1.80296l2.90154-5.27295-3.91114-3.96427c-.47206-.47823-.57957-1.20732-.26814-1.80296.31512-.59563.98117-.91816 1.63859-.80323z" style="fill:#009ae5;fill-opacity:1;stroke:#fff;stroke-width:1.81162;stroke-miterlimit:4;stroke-dasharray:none;stroke-opacity:1"/><g id="g144" aria-label="trekie" style="font-size:10.5833px;line-height:1.25;fill:#21272c;fill-opacity:1;stroke-width:.264583" transform="translate(210.85401 556.49491) scale(2.7939528)"><path id="path138" d="M33.697253 31.635833c-.282614 0-.591107.106149-.810117.325156-.219012.219013-.324601.526949-.324601.809562v1.928373c0 .491315.01711.530275-.755739.530275-.269617 0-.583024.09382-.809747.320533-.226724.226725-.320902.540132-.320902.809747v.265045c0 .269615.09418.583023.320902.809747.226728.226732.540137.320902.809747.320902.53971 0 .755739.21037.755739.644209v4.218341c0 .653323.08427 1.259584.260791 1.818508.191659.606926.553088 1.130994 1.053521 1.497976.534648.392078 1.214733.556539 1.973134.556539h1.115113c.282616 0 .591104-.105599.810116-.324601.226731-.226728.320533-.539954.320533-.809562v-.263196c.000003-.269615-.0938-.582838-.320533-.809561-.219017-.219019-.527505-.324602-.810116-.324602h-1.022079c-.354456 0-.480937-.09742-.623309-.344022-.121177-.219277-.171271-.491527-.171271-1.074607v-4.378699c0-.230832.245191-.406723.405058-.406723h1.224423c.269616 0 .582836-.09418.809562-.320902.226733-.226729.321087-.540137.321087-.809747v-.26523c0-.269619-.09437-.582838-.321087-.809562-.226726-.226728-.539946-.320533-.809562-.320533h-1.005987c-.509452 0-.623494-.185749-.623494-.785147v-1.673501c0-.282625-.105439-.590555-.324417-.809562-.213053-.213049-.521349-.325156-.806233-.325156zm23.404049 0c-.284916-.000053-.593004.112099-.806047.325156-.219004.21901-.324605.526942-.324602.809562v12.586032c-.000003.28262.105598.590551.324602.809562.213049.213045.521164.324601.806047.324601h.320533c.282615 0 .590736-.105597.809746-.324601.219012-.219012.324972-.526947.324972-.809562v-2.369499c0-.07858.09592-.08386.195316.01554l3.356805 2.985965c.204355.181692.426027.335774.638106.430767.184283.08257.420059.18016.722446.158509.295766-.02117.711979-.126693.980278-.392481.210259-.20829.324607-.51549.324602-.79199.000008-.458508-.26487-.710365-.475528-.904816-.0037-.0027-.0077-.0053-.01165-.0076l-.0018-.002-4.412547-3.935354c-.129837-.129837-.121514-.187187.01-.318683l3.848054-2.922154c.157688-.119717.33362-.295613.444269-.500681v-.00407c.216843-.430825.08756-.926628-.210852-1.232746V35.563256c-.187393-.186503-.43443-.375929-.730215-.427253-.478508-.08303-.803081.04062-1.097911.210852-.199061.114925-.384285.250523-.521767.357154v-.0015l-2.751992 2.085219c-.000005.000673-.000005.0013 0 .002-.242661.177119-.305551.03292-.305551-.139088v-4.880121c0-.282624-.10599-.590556-.324972-.809562-.219023-.219025-.527168-.325103-.809746-.325156zm9.496306.246179c-.256887.0079-.53989.135866-.723186.335514-.190229.201369-.285206.480617-.285206.719117v.744272c.000003.245531.09.537985.292234.740202.202218.202221.495223.292787.740758.292789h.744271c.238501.000002.517168-.095.718563-.285205.206067-.189202.336072-.48447.336069-.747786v-.744272c0-.256593-.128424-.539791-.324972-.72966-.189873-.196555-.47307-.324968-.72966-.324971h-.744271c-.0082 0-.0163-.000252-.0246 0zm-26.405735 2.875174c-.434786.0024-.717277.01433-.958453.268005-.204118.215586-.314983.644992-.314983.922571v9.408821c0 .282616.105591.590551.324601.809562.219008.219001.526945.324601.809562.324601h.300002c.278284 0 .569161-.113202.784408-.317018.228322-.210254.36733-.519529.367326-.817145v-5.85818c0-.61869.155187-.990088.454443-1.289343.3008-.300802.66625-.453887 1.285089-.453887h1.089403c.14312 0 .337376-.03998.495133-.09858.169263-.06288.349094-.144347.471459-.266709.226374-.226371.322567-.42313.322567-.678427 0-.106005.0027-.29566.0018-.396365-.0026-.282604-.105599-.590549-.324601-.809562-.122674-.122671-.295591-.206306-.471459-.26671-.175866-.06041-.352917-.0947-.495318-.0947h-1.332623c-.66789 0-1.084335.187211-1.559937.633666-.001-.0062-.001-.0075-.002-.01369-.02978-.173058-.09093-.504597-.28576-.699141-.244233-.243972-.583654-.309891-.960488-.307771zm9.942796.282431c-.922627 0-1.771198.21082-2.49712.647354.0035-.0019-.000162-.000931-.0096.0041a.13307617.13307617 0 0 0-.0061.0035c-.703473.434056-1.262647 1.050743-1.6563 1.808891-.390069.751252-.618988 1.608968-.688044 2.547983a.13307617.13307617 0 0 0 0 .0096c-.000002.0014-.000002.002 0 .0035-.01432.220555-.0172.531562-.0172.794581 0 .263039.0028.575449.0172.796059-.000013.0026-.00001.0033 0 .0061.000075.001-.000067.003 0 .0041a.13307617.13307617 0 0 0 0 .0055c.110129 1.417825.574598 2.638959 1.408641 3.575426a.13307617.13307617 0 0 0 .0039.0035c.855225.945246 2.064483 1.428802 3.444476 1.428802.659798 0 1.271442-.09399 1.833675-.286316a.13307617.13307617 0 0 0 .0061-.0015c.903106-.349021 1.73127-.813301 2.330658-1.635585a.13307617.13307617 0 0 0 0-.000185.13307617.13307617 0 0 0 0-.000185.13307617.13307617 0 0 0 0-.000185.13307617.13307617 0 0 0 0-.000185.13307617.13307617 0 0 0 0-.000185.13307617.13307617 0 0 0 0-.000185.13307617.13307617 0 0 0 0-.000185.13307617.13307617 0 0 0 0-.000185.13307617.13307617 0 0 0 0-.000185.13307617.13307617 0 0 0 0-.000185.13307617.13307617 0 0 0 0-.000185c.210846-.297701.431507-.541102.431507-1.021893 0-.319291-.128641-.666327-.381014-.879661-.193947-.163962-.44985-.342358-.769425-.342358-.330044 0-.633591.01566-1.020415.379164a.13307617.13307617 0 0 0-.0035.0019c-.431755.433223-.846912.875601-1.376273 1.076456-.336714.126057-.697684.204931-1.043719.185513-.408671-.02292-.833067-.123028-1.159503-.340323-.347009-.230991-.570586-.502122-.786442-.967886-.08561-.184723-.140604-.33416-.162948-.444639-.02234-.110481-.01143-.173012.01017-.210852.02159-.03783.06409-.07243.164243-.100248.100146-.02781.250409-.04291.448338-.04291h5.220074c.26737 0 .564984-.105449.782928-.3111.228664-.210574.367512-.522119.367512-.819734v-.281691c0-1.082857-.180404-2.058414-.570226-2.901439l-.002-.0015c-.377165-.839998-.950058-1.524709-1.689489-1.992512-.747988-.473214-1.641892-.697662-2.630104-.697662Zm23.875877 0c-.922624 0-1.771196.21082-2.49712.647354.0035-.0019-.000161-.000931-.0096.0041a.13307617.13307617 0 0 0-.0061.0035c-.703474.434056-1.262462 1.050743-1.656115 1.808891-.390067.751252-.619175 1.608968-.688229 2.547983a.13307617.13307617 0 0 0 0 .0096c-.000003.0014-.000003.002 0 .0035-.01432.220555-.0172.531562-.0172.794581 0 .263039.0028.575449.0172.796059-.000014.0026-.000012.0033 0 .0061.000074.001-.000068.003 0 .0041a.13307617.13307617 0 0 0 0 .0055c.110127 1.417825.574598 2.638959 1.408641 3.575426a.13307617.13307617 0 0 0 .0041.0035c.855225.945246 2.064296 1.428802 3.444291 1.428802.659797 0 1.271445-.09399 1.833675-.286316a.13307617.13307617 0 0 0 .0061-.0015c.903105-.349021 1.731269-.813301 2.330657-1.635585a.13307617.13307617 0 0 0 0-.000185.13307617.13307617 0 0 0 0-.000185.13307617.13307617 0 0 0 0-.000185.13307617.13307617 0 0 0 0-.000185.13307617.13307617 0 0 0 0-.000185.13307617.13307617 0 0 0 0-.000185.13307617.13307617 0 0 0 0-.000185.13307617.13307617 0 0 0 0-.000185.13307617.13307617 0 0 0 0-.000185.13307617.13307617 0 0 0 0-.000185.13307617.13307617 0 0 0 0-.000185c.210845-.297701.431693-.541102.431693-1.021893 0-.319291-.128826-.666327-.381199-.879661-.193949-.163962-.449849-.342358-.769426-.342358-.330044 0-.633593.01566-1.020414.379164a.13307617.13307617 0 0 0-.0033.0019c-.431757.433223-.847099.875601-1.376459 1.076456-.336714.126057-.697499.204931-1.043534.185513-.408669-.02292-.833253-.123028-1.159687-.340323-.347011-.230991-.57059-.502122-.786442-.967886-.08561-.184723-.140421-.33416-.162764-.444639-.02234-.110481-.01161-.173012.01-.210852.02159-.03783.06427-.07243.164428-.100248.100148-.02781.250227-.04291.448153-.04291h5.220074c.267371 0 .564984-.105449.782928-.3111.228663-.210574.367512-.522119.367512-.819734v-.281691c0-1.082857-.180402-2.058414-.570226-2.901439l-.0019-.0015c-.37708-.840041-.950163-1.524752-1.689592-1.992555-.74799-.473214-1.641892-.697662-2.630105-.697662zm-7.16084.189582c-.269615 0-.583024.09382-.809747.320533-.226733.226729-.321087.540139-.321087.809747v8.997104c0 .269604.09434.582833.321087.809562.219014.219009.527137.324601.809747.324601h.320903c.282614 0 .590733-.105587.809746-.324601.226411-.226412.322567-.53922.322567-.809562v-8.997104c0-.270341-.09617-.583334-.322567-.809747-.226724-.226728-.540135-.320533-.809746-.320533zM50.134484 37.56744l.000185.000185c.516674 0 .89952.114409 1.227012.33274a.13307617.13307617 0 0 0 .002.0015c.01121.0072.01131.0076.0061.0039a.13307617.13307617 0 0 0 .0041.002c.345034.220438.590865.49987.778304.894458.06514.137156.103938.302995.13169.483481a.13307617.13307617 0 0 0 .0015.01517c.0026.0098-.000809.09452-.03829.153145-.0376.05864-.08791.101912-.1992.101912H48.22886c-.162071 0-.237108-.112847-.220285-.251173.02593-.18817.0612-.361194.123552-.502531a.13307617.13307617 0 0 0 .0039-.0035c.188646-.39526.434607-.674109.767391-.892793a.13307617.13307617 0 0 0 .01165-.0096c.325921-.215261.706487-.328856 1.219429-.328856zm23.876062 0v.000185c.516675 0 .899706.114409 1.227197.33274a.13307617.13307617 0 0 0 .0019.0015c.01121.0072.01131.0076.0061.0039a.13307617.13307617 0 0 0 .0041.002c.345033.220438.591051.49987.778489.894458.06514.137156.103753.302995.131506.483481a.13307617.13307617 0 0 0 .0015.01517c.0026.0098-.000807.09452-.03829.153145-.0376.05864-.08791.101912-.1992.101912h-3.819016c-.162072 0-.237108-.112847-.220285-.251173.02593-.18817.0612-.361194.123552-.502531a.13307617.13307617 0 0 0 .0041-.0035c.188646-.39526.434425-.674109.767206-.892793a.13307617.13307617 0 0 0 .01165-.0096c.325922-.215261.706672-.328856 1.219614-.328856z" style="font-weight:300;-inkscape-font-specification:&quot;Rubik Light&quot;;fill:url(#linearGradient148);fill-opacity:1;stroke-width:.0729388"/></g></g></svg>