<svg xmlns="http://www.w3.org/2000/svg" xmlns:xlink="http://www.w3.org/1999/xlink" xml:space="preserve" id="svg5" width="823.26758" height="259.03564" version="1.1" viewBox="0 0 217.82289 68.536514"><defs id="defs2"><linearGradient id="linearGradient152"><stop id="stop151" offset="0" style="stop-color:#090a10;stop-opacity:1"/><stop id="stop152" offset="1" style="stop-color:#333c4c;stop-opacity:1"/></linearGradient><linearGradient id="linearGradient149"><stop id="stop149" offset="0" style="stop-color:#21272c;stop-opacity:1"/><stop id="stop150" offset="1" style="stop-color:#21272c;stop-opacity:0"/></linearGradient><linearGradient id="linearGradient23"><stop id="stop22" offset=".0001" style="stop-color:#008040;stop-opacity:1"/><stop id="stop23" offset=".99989998" style="stop-color:#63e963;stop-opacity:1"/></linearGradient><linearGradient xlink:href="#linearGradient23" id="linearGradient220" x1="211.29193" x2="301.67172" y1="762.6239" y2="672.24414" gradientTransform="translate(88.84633 129.92333) scale(.6451905)" gradientUnits="userSpaceOnUse"/><linearGradient id="linearGradient9"><stop id="stop8" offset="0" style="stop-color:#fa8938;stop-opacity:1"/><stop id="stop9" offset="1" style="stop-color:#faca38;stop-opacity:1"/></linearGradient><linearGradient xlink:href="#linearGradient9" id="linearGradient72" x1="11.105691" x2="19.155231" y1="14.468366" y2="9.820961" gradientTransform="translate(181.38717 533.15827) scale(4.6705351)" gradientUnits="userSpaceOnUse"/><linearGradient xlink:href="#linearGradient149" id="linearGradient150" x1="30.676098" x2="78.902374" y1="39.157276" y2="39.157276" gradientUnits="userSpaceOnUse"/><linearGradient xlink:href="#linearGradient152" id="linearGradient151" x1="53.679401" x2="53.679401" y1="46.817432" y2="31.876572" gradientUnits="userSpaceOnUse"/><linearGradient xlink:href="#linearGradient149" id="linearGradient1" x1="30.676098" x2="78.902374" y1="39.157276" y2="39.157276" gradientUnits="userSpaceOnUse"/><linearGradient xlink:href="#linearGradient149" id="linearGradient2" x1="30.676098" x2="78.902374" y1="39.157276" y2="39.157276" gradientUnits="userSpaceOnUse"/><style id="style6568">.cls-2{clip-path:url(#clip-path);fill:#aa392d}.cls-3{fill:#7c211a}.cls-4{fill:#e59973}.cls-5{fill:#2d2d2d}.cls-6{opacity:.2}.cls-7{opacity:.3}.cls-1{fill:none}.st1{stroke-linecap:round}.st2,.st3{stroke-linejoin:round;stroke-miterlimit:10}.st2{fill:none;stroke:#6a83ba;stroke-width:4;stroke-linecap:round}.st3{fill:#8a8aff;stroke:#8a8aff}.st3,.st4,.st5{stroke-width:2;stroke-linecap:round}.st4{fill:#6c3db7;stroke:#6c3db7;stroke-linejoin:round;stroke-miterlimit:10}.st5{fill:#a576ff;stroke:#a576ff}.st5,.st6,.st7{stroke-linejoin:round;stroke-miterlimit:10}.st6{fill:#f2bb41;stroke:#f2bb41;stroke-width:2;stroke-linecap:round}.st7{fill:#e08838;stroke:#e08838}.st7,.st8,.st9{stroke-width:2;stroke-linecap:round}.st8{fill:#1f992a;stroke:#1f992a;stroke-linejoin:round;stroke-miterlimit:10}.st9{fill:#5ec11e;stroke:#5ec11e}.st10,.st11,.st9{stroke-linejoin:round;stroke-miterlimit:10}.st10{fill:#e3faff;stroke:#e3faff;stroke-width:2;stroke-linecap:round}.st11{fill:#ff5093;stroke:#ff5093}.st11,.st12,.st13{stroke-width:2;stroke-linecap:round}.st12{fill:#b7257f;stroke:#b7257f;stroke-linejoin:round;stroke-miterlimit:10}.st13{fill:#5189e5;stroke:#5189e5}.st13,.st14,.st15{stroke-linejoin:round;stroke-miterlimit:10}.st14{fill:#6ebaff;stroke:#6ebaff;stroke-width:2;stroke-linecap:round}.st15{fill:#edd977;stroke:#edd977}.st15,.st16,.st17{stroke-width:2;stroke-linecap:round}.st16{fill:#8c43ff;stroke:#8c43ff;stroke-linejoin:round;stroke-miterlimit:10}.st17{fill:#5252ba;stroke:#5252ba}.st0,.st1,.st17,.st18,.st19{stroke-linejoin:round;stroke-miterlimit:10}.st18{fill:none;stroke:#e3faff;stroke-width:4;stroke-linecap:round}.st0,.st1,.st19{stroke-width:2}.st19{fill:#354c75;stroke:#354c75;stroke-linecap:round}.st0,.st1{stroke:#000}.st1{fill:#454545}.st0{stroke-linecap:round}.linesandangles_een{fill:#111918}.st0{fill:#000}</style><path id="rect24570-3" d="M223.75488 162.30469h120.36133v58.945312H223.75488z"/></defs><g id="layer1" transform="translate(-219.94423 -558.1619)"><rect id="rect219" width="66.145836" height="66.145836" x="220.36176" y="558.83795" rx="13.229166" ry="13.229166" style="fill:url(#linearGradient220);fill-opacity:1;stroke-width:4.14699"/><path id="path54" fill="#ffcc4d" d="M275.75281 592.42392c0 12.28455-9.95888 22.24343-22.24344 22.24343-12.28454 0-22.24342-9.95888-22.24342-22.24343s9.95888-22.24343 22.24342-22.24343c12.28456 0 22.24344 9.95888 22.24344 22.24343" style="fill:url(#linearGradient72);fill-opacity:1;stroke:#fff;stroke-width:0;stroke-miterlimit:4;stroke-dasharray:none;stroke-opacity:1"/><path id="path55" fill="#664500" d="M253.50937 596.13116c-4.4771 0-7.44783-.52149-11.1217-1.23574-.83908-.16189-2.47149 0-2.47149 2.47147 0 4.94299 5.67825 11.12172 13.59319 11.12172 7.91372 0 13.59321-6.17873 13.59321-11.12172 0-2.47147-1.63242-2.63459-2.4715-2.47147-3.67386.71425-6.6446 1.23574-11.12171 1.23574z" style="fill:#3e270f;fill-opacity:1;stroke:none;stroke-width:0;stroke-miterlimit:4;stroke-dasharray:none"/><path id="path56" fill="#fff" d="M243.21424 597.57237c1.42228.3514 4.79958 1.03028 10.29513 1.03028 5.35558 0 8.77694-.64473 10.26412-1.00281.48313-.12948.81514.14771.74394.56198-.28484 1.65706-2.09147 5.60583-10.8424 5.60583-8.95957 0-10.73171-3.98997-11.16079-5.59138-.1162-.43366.29374-.71275.7-.6039z" style="stroke-width:0;stroke-miterlimit:4;stroke-dasharray:none"/><path id="path57" fill="#e95f28" d="m250.64492 574.29374-5.61276.98984-2.89164-5.25564c-.31882-.57956-.97376-.88973-1.6213-.77605-.65124.11492-1.15789.63147-1.25923 1.28395l-.92062 5.92788-5.61276.98982c-.66113.11618-1.17149.64878-1.26169 1.31484-.0902.66607.26075 1.3136.86873 1.60276l5.02947 2.38747-.92433 5.94641c-.10257.66236.23358 1.31484.83165 1.61759.2212.11124.45846.16441.6945.16441.4041 0 .80323-.15813 1.10105-.45967l4.33993-4.4005 5.5831 2.65067c.60552.28669 1.32719.15199 1.78689-.33615.45971-.48811.55114-1.21596.22861-1.80294l-2.90152-5.2742 3.91113-3.96428c.47208-.47823.57957-1.20732.26817-1.80296-.31385-.59563-.97996-.91815-1.63736-.80323zm5.72891 0 5.61276.98984 2.89165-5.25564c.3188-.57956.97376-.88973 1.6213-.77605.65.11492 1.15665.63147 1.25799 1.28395l.92063 5.92788 5.61275.98982c.66236.11618 1.17273.64753 1.2617 1.31361.089.66607-.26077 1.31359-.86874 1.60275l-5.02947 2.38747.92432 5.94641c.10259.66237-.23358 1.31483-.83164 1.6176-.22121.11122-.45848.16444-.69448.16444-.40411 0-.80326-.15813-1.10106-.45974l-4.33994-4.40049-5.58311 2.65067c-.60551.28671-1.32718.152-1.78688-.33614-.45972-.48812-.55114-1.21598-.22862-1.80296l2.90154-5.27295-3.91114-3.96427c-.47206-.47823-.57957-1.20732-.26814-1.80296.31512-.59563.98117-.91816 1.63859-.80323z" style="fill:#009ae5;fill-opacity:1;stroke:#fff;stroke-width:1.81162;stroke-miterlimit:4;stroke-dasharray:none;stroke-opacity:1"/><g id="text10316" aria-label="trekie" style="font-size:10.5833px;line-height:1.25;fill:url(#linearGradient150);fill-opacity:1;stroke-width:.264583" transform="translate(210.3001 484.74338) scale(2.7939528)"><path id="path1472" d="M33.697253 31.63589c-.282614 0-.591107.105964-.810117.324971-.219013.219013-.324601.527134-.324601.809747v1.928374c0 .491314.01711.530275-.755739.530275-.269617 0-.583024.09382-.809747.320532-.226724.226725-.320902.539947-.320902.809562v.26523c0 .269617.09418.582838.320902.809562.226728.226733.540137.321087.809747.321087.539711 0 .755739.210369.755739.644209v4.218156c0 .653324.08427 1.259768.260791 1.818693.191659.606928.553087 1.130995 1.053521 1.497976.534648.392078 1.214732.556539 1.973134.556539h1.115113c.282617 0 .591104-.105597.810116-.324601.226731-.226728.320533-.539954.320533-.809562v-.263195c.000003-.269617-.0938-.583022-.320533-.809747-.219017-.219019-.527504-.324602-.810116-.324602h-1.022079c-.354456 0-.480937-.09724-.623309-.343837-.121177-.219277-.171271-.491525-.171271-1.074607v-4.378884c0-.230832.245191-.406538.405058-.406538h1.224423c.269616 0 .582836-.09437.809562-.321087.226733-.226729.321087-.53995.321087-.809562v-.26523c0-.269619-.09437-.582838-.321087-.809562-.226726-.226728-.539946-.320532-.809562-.320532h-1.005987c-.509452 0-.623494-.185935-.623494-.785333v-1.673316c0-.282625-.105439-.59074-.324417-.809747-.213053-.213049-.521349-.324971-.806233-.324971zm23.404049 0c-.284916-.000053-.593003.111914-.806047.324971-.219004.21901-.324605.527127-.324602.809747V45.35664c-.000003.28262.105598.590551.324602.809562.21305.213047.521164.324601.806047.324601h.320533c.282616 0 .590735-.105595.809746-.324601.219012-.219012.324972-.526947.324972-.809562v-2.369684c0-.07858.09592-.08368.195316.01572l3.356805 2.985964c.204355.181692.426027.335775.638106.430768.184284.08257.420059.18016.722446.158509.295766-.02117.711978-.126879.980278-.392667.210259-.208291.324607-.515489.324602-.79199.000008-.458508-.26487-.71018-.475528-.904631-.0037-.0027-.0077-.0055-.01165-.0078l-.0018-.0018-4.412547-3.935355c-.129837-.129837-.121514-.187187.01-.318683l3.848054-2.922154c.157688-.119716.333619-.295611.444269-.500681v-.004069c.216843-.430827.08756-.926814-.210852-1.232931v-.002035c-.187393-.186503-.43443-.375929-.730215-.427253-.478509-.08303-.803081.04062-1.097911.210852-.199061.114925-.384285.250708-.521767.357339v-.0015l-2.751992 2.085218c-.000005.000673-.000005.0013 0 .002-.242661.177119-.305551.03292-.305551-.139088v-4.880121c0-.282624-.10599-.590741-.324972-.809747-.219024-.219025-.527167-.324918-.809746-.324971zm9.496306.245994c-.256888.0079-.53989.136051-.723186.335699-.190229.201369-.285206.480618-.285206.719117v.744087c.000003.245531.09.537984.292234.740203.202218.20222.495223.292971.740758.292973h.744271c.238501.000002.517168-.09519.718563-.28539.206068-.189202.336072-.48447.336069-.747786V32.9367c0-.256592-.128424-.539791-.324972-.729659-.189873-.196557-.47307-.325154-.72966-.325157h-.744271c-.0082 0-.0163-.000252-.0246 0zm-26.405735 2.875359c-.434787.0024-.717277.01433-.958453.268005-.204118.215588-.314983.644992-.314983.922571v9.408821c0 .282616.105591.590551.324601.809562.219008.219003.526945.324601.809562.324601h.300002c.278284 0 .569161-.113202.784408-.317018.228323-.210254.36733-.519529.367326-.817145v-5.858364c0-.618692.155187-.989904.454443-1.289159.300801-.300801.66625-.453887 1.285089-.453887h1.089403c.14312 0 .337376-.03998.495133-.09858.169263-.06288.349094-.144345.471459-.266709.226375-.226371.322567-.423315.322567-.678612 0-.106005.0027-.295475.0018-.39618-.0026-.282604-.105598-.590734-.324601-.809747-.122674-.122671-.295591-.206306-.471459-.266709-.175866-.06041-.352917-.09451-.495318-.09451h-1.332623c-.667891 0-1.084334.187025-1.559937.633482-.001-.0062-.001-.0073-.002-.0135-.02978-.17306-.09093-.504596-.28576-.699142-.244233-.243972-.583654-.309891-.960488-.307771zm9.942796.282432c-.922627 0-1.771197.210819-2.49712.647353.0035-.0019-.000162-.000931-.0096.0041a.13307617.13307617 0 0 0-.0061.0035c-.703474.434056-1.262647 1.050742-1.6563 1.808891-.390069.751253-.618988 1.608967-.688044 2.547983a.13307617.13307617 0 0 0 0 .0096c-.000002.0014-.000002.002 0 .0035-.01432.220555-.0172.531562-.0172.794581 0 .26304.0028.575448.0172.79606-.000013.0026-.00001.0033 0 .0061.000075.001-.000067.0028 0 .0039a.13307617.13307617 0 0 0 0 .0057c.110129 1.417828.574597 2.638958 1.408641 3.575426a.13307617.13307617 0 0 0 .0039.0035c.855226.945247 2.064482 1.428802 3.444476 1.428802.659799 0 1.271442-.09399 1.833675-.286315a.13307617.13307617 0 0 0 .0061-.0017c.903107-.349021 1.73127-.813115 2.330658-1.6354a.13307617.13307617 0 0 0 0-.000185.13307617.13307617 0 0 0 0-.000185.13307617.13307617 0 0 0 0-.000185.13307617.13307617 0 0 0 0-.000185.13307617.13307617 0 0 0 0-.000185.13307617.13307617 0 0 0 0-.000185.13307617.13307617 0 0 0 0-.000185.13307617.13307617 0 0 0 0-.000185.13307617.13307617 0 0 0 0-.000185.13307617.13307617 0 0 0 0-.000185.13307617.13307617 0 0 0 0-.000184c.210846-.297703.431507-.541102.431507-1.021894 0-.319291-.128641-.66651-.381014-.879846-.193948-.163962-.449849-.342173-.769425-.342173-.330044 0-.633591.01547-1.020415.37898a.13307617.13307617 0 0 0-.0035.002c-.431756.433225-.846911.8756-1.376273 1.076456-.336714.126057-.697684.204931-1.043719.185513-.408671-.02292-.833067-.123028-1.159503-.340322-.34701-.230993-.570586-.502308-.786442-.968071-.08561-.184725-.140604-.334161-.162948-.44464-.02234-.110481-.01143-.172827.01017-.210667.02159-.03783.06409-.07261.164243-.100432.100147-.02781.250409-.04273.448338-.04273h5.220074c.26737 0 .564984-.105449.782928-.311099.228664-.210576.367512-.52212.367512-.819735v-.281691c0-1.082858-.180403-2.058412-.570226-2.901439l-.002-.0017c-.377084-.84004-.949977-1.524567-1.689408-1.992369-.747989-.473216-1.641891-.697663-2.630104-.697663Zm23.875877 0c-.922625 0-1.771195.210819-2.49712.647353.0035-.0019-.000161-.000931-.0096.0041a.13307617.13307617 0 0 0-.0061.0035c-.703475.434056-1.262462 1.050742-1.656115 1.808891-.390068.751253-.619175 1.608967-.688229 2.547983a.13307617.13307617 0 0 0 0 .0096c-.000003.0014-.000003.002 0 .0035-.01432.220555-.0172.531562-.0172.794581 0 .26304.0028.575448.0172.79606-.000014.0026-.000012.0033 0 .0061.000074.001-.000068.0028 0 .0039a.13307617.13307617 0 0 0 0 .0057c.110127 1.417828.574597 2.638958 1.408641 3.575426a.13307617.13307617 0 0 0 .0041.0035c.855226.945247 2.064295 1.428802 3.444291 1.428802.659798 0 1.271444-.09399 1.833675-.286315a.13307617.13307617 0 0 0 .0061-.0017c.903106-.349021 1.731268-.813115 2.330657-1.6354a.13307617.13307617 0 0 0 0-.000185.13307617.13307617 0 0 0 0-.000185.13307617.13307617 0 0 0 0-.000185.13307617.13307617 0 0 0 0-.000185.13307617.13307617 0 0 0 0-.000185.13307617.13307617 0 0 0 0-.000185.13307617.13307617 0 0 0 0-.000185.13307617.13307617 0 0 0 0-.000185.13307617.13307617 0 0 0 0-.000185.13307617.13307617 0 0 0 0-.000185.13307617.13307617 0 0 0 0-.000184c.210845-.297703.431693-.541102.431693-1.021894 0-.319291-.128826-.66651-.381199-.879846-.193949-.163962-.449849-.342173-.769426-.342173-.330044 0-.633592.01547-1.020414.37898a.13307617.13307617 0 0 0-.0033.002c-.431757.433225-.847098.8756-1.376459 1.076456-.336714.126057-.697499.204931-1.043534.185513-.40867-.02292-.833252-.123028-1.159687-.340322-.347011-.230993-.570589-.502308-.786442-.968071-.08561-.184725-.140421-.334161-.162764-.44464-.02234-.110481-.01161-.172827.01-.210667.02159-.03783.06427-.07261.164428-.100432.100148-.02781.250226-.04273.448153-.04273h5.220074c.267371 0 .564984-.105449.782928-.311099.228663-.210576.367512-.52212.367512-.819735v-.281691c0-1.082858-.180402-2.058412-.570226-2.901439l-.0019-.0017c-.377081-.84004-.950162-1.524567-1.689592-1.992369-.74799-.473216-1.641891-.697663-2.630105-.697663Zm-7.16084.189582c-.269615 0-.583024.09382-.809747.320532-.226734.226729-.321087.539954-.321087.809562v8.997289c0 .269604.09434.582833.321087.809562.219014.219011.527136.324601.809747.324601h.320903c.282615 0 .590732-.105585.809746-.324601.226411-.226412.322567-.53922.322567-.809562v-8.997289c0-.270341-.09617-.583149-.322567-.809562-.226725-.226728-.540134-.320532-.809746-.320532zm-16.715222 2.338241h.000185c.516675 0 .89952.114408 1.227012.332739a.13307617.13307617 0 0 0 .002.0015c.01121.0072.01131.0078.0061.0041a.13307617.13307617 0 0 0 .0041.002c.345034.220437.590865.49987.778304.894457.06514.137156.103938.302995.13169.483481a.13307617.13307617 0 0 0 .0015.01498c.0026.0098-.000808.09471-.03829.153331-.0376.05864-.08791.101912-.1992.101912H48.22886c-.162071 0-.237108-.112848-.220285-.251174.02593-.188169.0612-.361194.123552-.502531a.13307617.13307617 0 0 0 .0039-.0035c.188646-.39526.434607-.674294.767391-.892978a.13307617.13307617 0 0 0 .01165-.0096c.325922-.215261.706487-.32867 1.219429-.32867zm23.876062 0c.516676 0 .899706.114408 1.227197.332739a.13307617.13307617 0 0 0 .0019.0015c.01121.0072.01131.0078.0061.0041a.13307617.13307617 0 0 0 .0041.002c.345033.220437.591051.49987.778489.894457.06514.137156.103753.302995.131506.483481a.13307617.13307617 0 0 0 .0015.01498c.0026.0098-.000807.09471-.03829.153331-.0376.05864-.08791.101912-.1992.101912h-3.819016c-.162072 0-.237108-.112848-.220285-.251174.02593-.188169.0612-.361194.123552-.502531a.13307617.13307617 0 0 0 .0041-.0035c.188646-.39526.434424-.674294.767206-.892978a.13307617.13307617 0 0 0 .01165-.0096c.325922-.215261.706672-.32867 1.219614-.32867z" style="font-weight:300;-inkscape-font-specification:&quot;Rubik Light&quot;;fill:url(#linearGradient151);fill-opacity:1;stroke-width:.0729388"/></g></g></svg>