<svg xmlns="http://www.w3.org/2000/svg" xmlns:xlink="http://www.w3.org/1999/xlink" xml:space="preserve" id="svg5" width="250" height="250.00002" version="1.1" viewBox="0 0 66.145836 66.145837"><defs id="defs2"><linearGradient id="linearGradient23"><stop id="stop22" offset=".0001" style="stop-color:#008040;stop-opacity:1"/><stop id="stop23" offset=".99989998" style="stop-color:#63e963;stop-opacity:1"/></linearGradient><linearGradient xlink:href="#linearGradient23" id="linearGradient220" x1="211.29193" x2="301.67172" y1="762.6239" y2="672.24414" gradientTransform="translate(88.84633 129.92333) scale(.6451905)" gradientUnits="userSpaceOnUse"/><linearGradient id="linearGradient9"><stop id="stop8" offset="0" style="stop-color:#fa8938;stop-opacity:1"/><stop id="stop9" offset="1" style="stop-color:#faca38;stop-opacity:1"/></linearGradient><linearGradient xlink:href="#linearGradient9" id="linearGradient72" x1="11.105691" x2="19.155231" y1="14.468366" y2="9.820961" gradientTransform="translate(181.38717 533.15827) scale(4.6705351)" gradientUnits="userSpaceOnUse"/><style id="style6568">.cls-2{clip-path:url(#clip-path);fill:#aa392d}.cls-3{fill:#7c211a}.cls-4{fill:#e59973}.cls-5{fill:#2d2d2d}.cls-6{opacity:.2}.cls-7{opacity:.3}.cls-1{fill:none}.st1{stroke-linecap:round}.st2,.st3{stroke-linejoin:round;stroke-miterlimit:10}.st2{fill:none;stroke:#6a83ba;stroke-width:4;stroke-linecap:round}.st3{fill:#8a8aff;stroke:#8a8aff}.st3,.st4,.st5{stroke-width:2;stroke-linecap:round}.st4{fill:#6c3db7;stroke:#6c3db7;stroke-linejoin:round;stroke-miterlimit:10}.st5{fill:#a576ff;stroke:#a576ff}.st5,.st6,.st7{stroke-linejoin:round;stroke-miterlimit:10}.st6{fill:#f2bb41;stroke:#f2bb41;stroke-width:2;stroke-linecap:round}.st7{fill:#e08838;stroke:#e08838}.st7,.st8,.st9{stroke-width:2;stroke-linecap:round}.st8{fill:#1f992a;stroke:#1f992a;stroke-linejoin:round;stroke-miterlimit:10}.st9{fill:#5ec11e;stroke:#5ec11e}.st10,.st11,.st9{stroke-linejoin:round;stroke-miterlimit:10}.st10{fill:#e3faff;stroke:#e3faff;stroke-width:2;stroke-linecap:round}.st11{fill:#ff5093;stroke:#ff5093}.st11,.st12,.st13{stroke-width:2;stroke-linecap:round}.st12{fill:#b7257f;stroke:#b7257f;stroke-linejoin:round;stroke-miterlimit:10}.st13{fill:#5189e5;stroke:#5189e5}.st13,.st14,.st15{stroke-linejoin:round;stroke-miterlimit:10}.st14{fill:#6ebaff;stroke:#6ebaff;stroke-width:2;stroke-linecap:round}.st15{fill:#edd977;stroke:#edd977}.st15,.st16,.st17{stroke-width:2;stroke-linecap:round}.st16{fill:#8c43ff;stroke:#8c43ff;stroke-linejoin:round;stroke-miterlimit:10}.st17{fill:#5252ba;stroke:#5252ba}.st0,.st1,.st17,.st18,.st19{stroke-linejoin:round;stroke-miterlimit:10}.st18{fill:none;stroke:#e3faff;stroke-width:4;stroke-linecap:round}.st0,.st1,.st19{stroke-width:2}.st19{fill:#354c75;stroke:#354c75;stroke-linecap:round}.st0,.st1{stroke:#000}.st1{fill:#454545}.st0{stroke-linecap:round}.linesandangles_een{fill:#111918}.st0{fill:#000}</style></defs><g id="layer1" transform="translate(-220.36176 -558.83795)"><rect id="rect219" width="66.145836" height="66.145836" x="220.36176" y="558.83795" rx="13.229166" ry="13.229166" style="fill:url(#linearGradient220);fill-opacity:1;stroke-width:4.14699"/><path id="path54" fill="#ffcc4d" d="M275.75281 592.42392c0 12.28455-9.95888 22.24343-22.24344 22.24343-12.28454 0-22.24342-9.95888-22.24342-22.24343s9.95888-22.24343 22.24342-22.24343c12.28456 0 22.24344 9.95888 22.24344 22.24343" style="fill:url(#linearGradient72);fill-opacity:1;stroke:#fff;stroke-width:0;stroke-miterlimit:4;stroke-dasharray:none;stroke-opacity:1"/><path id="path55" fill="#664500" d="M253.50937 596.13116c-4.4771 0-7.44783-.52149-11.1217-1.23574-.83908-.16189-2.47149 0-2.47149 2.47147 0 4.94299 5.67825 11.12172 13.59319 11.12172 7.91372 0 13.59321-6.17873 13.59321-11.12172 0-2.47147-1.63242-2.63459-2.4715-2.47147-3.67386.71425-6.6446 1.23574-11.12171 1.23574z" style="fill:#3e270f;fill-opacity:1;stroke:none;stroke-width:0;stroke-miterlimit:4;stroke-dasharray:none"/><path id="path56" fill="#fff" d="M243.21424 597.57237c1.42228.3514 4.79958 1.03028 10.29513 1.03028 5.35558 0 8.77694-.64473 10.26412-1.00281.48313-.12948.81514.14771.74394.56198-.28484 1.65706-2.09147 5.60583-10.8424 5.60583-8.95957 0-10.73171-3.98997-11.16079-5.59138-.1162-.43366.29374-.71275.7-.6039z" style="stroke-width:0;stroke-miterlimit:4;stroke-dasharray:none"/><path id="path57" fill="#e95f28" d="m250.64492 574.29374-5.61276.98984-2.89164-5.25564c-.31882-.57956-.97376-.88973-1.6213-.77605-.65124.11492-1.15789.63147-1.25923 1.28395l-.92062 5.92788-5.61276.98982c-.66113.11618-1.17149.64878-1.26169 1.31484-.0902.66607.26075 1.3136.86873 1.60276l5.02947 2.38747-.92433 5.94641c-.10257.66236.23358 1.31484.83165 1.61759.2212.11124.45846.16441.6945.16441.4041 0 .80323-.15813 1.10105-.45967l4.33993-4.4005 5.5831 2.65067c.60552.28669 1.32719.15199 1.78689-.33615.45971-.48811.55114-1.21596.22861-1.80294l-2.90152-5.2742 3.91113-3.96428c.47208-.47823.57957-1.20732.26817-1.80296-.31385-.59563-.97996-.91815-1.63736-.80323zm5.72891 0 5.61276.98984 2.89165-5.25564c.3188-.57956.97376-.88973 1.6213-.77605.65.11492 1.15665.63147 1.25799 1.28395l.92063 5.92788 5.61275.98982c.66236.11618 1.17273.64753 1.2617 1.31361.089.66607-.26077 1.31359-.86874 1.60275l-5.02947 2.38747.92432 5.94641c.10259.66237-.23358 1.31483-.83164 1.6176-.22121.11122-.45848.16444-.69448.16444-.40411 0-.80326-.15813-1.10106-.45974l-4.33994-4.40049-5.58311 2.65067c-.60551.28671-1.32718.152-1.78688-.33614-.45972-.48812-.55114-1.21598-.22862-1.80296l2.90154-5.27295-3.91114-3.96427c-.47206-.47823-.57957-1.20732-.26814-1.80296.31512-.59563.98117-.91816 1.63859-.80323z" style="fill:#009ae5;fill-opacity:1;stroke:#fff;stroke-width:1.81162;stroke-miterlimit:4;stroke-dasharray:none;stroke-opacity:1"/></g></svg>