<svg xmlns="http://www.w3.org/2000/svg" xmlns:xlink="http://www.w3.org/1999/xlink" xml:space="preserve" id="svg5" width="249.99997" height="250.00005" version="1.1" viewBox="0 0 66.145828 66.145845"><defs id="defs2"><linearGradient id="linearGradient9"><stop id="stop8" offset="0" style="stop-color:#fa8938;stop-opacity:1"/><stop id="stop9" offset="1" style="stop-color:#faca38;stop-opacity:1"/></linearGradient><linearGradient xlink:href="#linearGradient9" id="linearGradient109" x1="11.105691" x2="19.155231" y1="14.468366" y2="9.820961" gradientTransform="translate(202.419 713.5451) scale(4.583455)" gradientUnits="userSpaceOnUse"/><linearGradient xlink:href="#linearGradient9" id="linearGradient110" x1="11.105691" x2="19.155231" y1="14.468366" y2="9.820961" gradientTransform="translate(202.419 713.5451) scale(4.583455)" gradientUnits="userSpaceOnUse"/><linearGradient xlink:href="#linearGradient9" id="linearGradient111" x1="11.105691" x2="19.155231" y1="14.468366" y2="9.820961" gradientTransform="translate(202.419 713.5451) scale(4.583455)" gradientUnits="userSpaceOnUse"/><linearGradient xlink:href="#linearGradient9" id="linearGradient112" x1="11.105691" x2="19.155231" y1="14.468366" y2="9.820961" gradientTransform="translate(202.419 713.5451) scale(4.583455)" gradientUnits="userSpaceOnUse"/><style id="style6568">.cls-2{clip-path:url(#clip-path);fill:#aa392d}.cls-3{fill:#7c211a}.cls-4{fill:#e59973}.cls-5{fill:#2d2d2d}.cls-6{opacity:.2}.cls-7{opacity:.3}.cls-1{fill:none}.st1{stroke-linecap:round}.st2,.st3{stroke-linejoin:round;stroke-miterlimit:10}.st2{fill:none;stroke:#6a83ba;stroke-width:4;stroke-linecap:round}.st3{fill:#8a8aff;stroke:#8a8aff}.st3,.st4,.st5{stroke-width:2;stroke-linecap:round}.st4{fill:#6c3db7;stroke:#6c3db7;stroke-linejoin:round;stroke-miterlimit:10}.st5{fill:#a576ff;stroke:#a576ff}.st5,.st6,.st7{stroke-linejoin:round;stroke-miterlimit:10}.st6{fill:#f2bb41;stroke:#f2bb41;stroke-width:2;stroke-linecap:round}.st7{fill:#e08838;stroke:#e08838}.st7,.st8,.st9{stroke-width:2;stroke-linecap:round}.st8{fill:#1f992a;stroke:#1f992a;stroke-linejoin:round;stroke-miterlimit:10}.st9{fill:#5ec11e;stroke:#5ec11e}.st10,.st11,.st9{stroke-linejoin:round;stroke-miterlimit:10}.st10{fill:#e3faff;stroke:#e3faff;stroke-width:2;stroke-linecap:round}.st11{fill:#ff5093;stroke:#ff5093}.st11,.st12,.st13{stroke-width:2;stroke-linecap:round}.st12{fill:#b7257f;stroke:#b7257f;stroke-linejoin:round;stroke-miterlimit:10}.st13{fill:#5189e5;stroke:#5189e5}.st13,.st14,.st15{stroke-linejoin:round;stroke-miterlimit:10}.st14{fill:#6ebaff;stroke:#6ebaff;stroke-width:2;stroke-linecap:round}.st15{fill:#edd977;stroke:#edd977}.st15,.st16,.st17{stroke-width:2;stroke-linecap:round}.st16{fill:#8c43ff;stroke:#8c43ff;stroke-linejoin:round;stroke-miterlimit:10}.st17{fill:#5252ba;stroke:#5252ba}.st0,.st1,.st17,.st18,.st19{stroke-linejoin:round;stroke-miterlimit:10}.st18{fill:none;stroke:#e3faff;stroke-width:4;stroke-linecap:round}.st0,.st1,.st19{stroke-width:2}.st19{fill:#354c75;stroke:#354c75;stroke-linecap:round}.st0,.st1{stroke:#000}.st1{fill:#454545}.st0{stroke-linecap:round}.linesandangles_een{fill:#111918}.st0{fill:#000}</style></defs><g id="layer1" transform="translate(-239.7442 -735.53162)"><g id="g112" transform="translate(-111.58982 -316.07078) scale(1.4075716)"><path id="path94" fill="#ffcc4d" d="M295.02524 771.7058c0 12.05551-9.7732 21.82871-21.82871 21.82871-12.05551 0-21.82871-9.7732-21.82871-21.82871 0-12.05551 9.7732-21.82871 21.82871-21.82871 12.05551 0 21.82871 9.7732 21.82871 21.82871" style="fill:url(#linearGradient112);fill-opacity:1;stroke:#fff;stroke-width:0;stroke-miterlimit:4;stroke-dasharray:none;stroke-opacity:1"/><path id="path95" fill="#664500" d="M273.19653 775.34392c-4.39363 0-7.30898-.51177-10.91435-1.2127-.82343-.15887-2.42541 0-2.42541 2.4254 0 4.85083 5.57238 10.91435 13.33976 10.91435 7.76617 0 13.33976-6.06352 13.33976-10.91435 0-2.4254-1.60198-2.58548-2.42541-2.4254-3.60537.70093-6.52072 1.2127-10.91435 1.2127z" style="fill:#3e270f;fill-opacity:1;stroke:none;stroke-width:0;stroke-miterlimit:4;stroke-dasharray:none"/><path id="path96" fill="#fff" d="M263.09334 776.75826c1.39576.34484 4.71009 1.01107 10.10319 1.01107 5.25572 0 8.6133-.63271 10.07275-.98411.47411-.12706.79993.14495.73006.5515-.27953 1.62616-2.05248 5.50132-10.64024 5.50132-8.79253 0-10.53163-3.91559-10.95271-5.48714-.11403-.42557.28827-.69946.68695-.59264z" style="stroke-width:0;stroke-miterlimit:4;stroke-dasharray:none"/><path id="path97" fill="#e95f28" d="m270.38548 753.91365-5.50811.97138-2.83773-5.15765c-.31287-.56875-.95561-.87314-1.59107-.76157-.6391.11277-1.13631.61969-1.23575 1.26l-.90346 5.81736-5.50811.97137c-.6488.11401-1.14965.63668-1.23817 1.29032-.0885.65365.25589 1.28911.85253 1.57288l4.9357 2.34296-.90709 5.83554c-.10066.65001.22922 1.29032.81614 1.58743.21708.10917.44991.16134.68155.16134.39656 0 .78826-.15518 1.08052-.4511l4.25902-4.31845 5.47901 2.60124c.59422.28135 1.30244.14916 1.75357-.32987.45114-.47902.54086-1.19329.22434-1.76933l-2.84741-5.17586 3.8382-3.89037c.46328-.46932.56877-1.18481.26317-1.76934-.308-.58453-.96168-.90104-1.60683-.78826zm5.6221 0 5.50811.97138 2.83774-5.15765c.31285-.56875.9556-.87314 1.59107-.76157.63788.11277 1.13508.61969 1.23453 1.26l.90347 5.81736 5.5081.97137c.65002.11401 1.15087.63546 1.23818 1.28911.0873.65366-.25591 1.2891-.85254 1.57288l-4.93571 2.34295.9071 5.83554c.10067.65002-.22923 1.29032-.81614 1.58744-.21708.10915-.44993.16137-.68154.16137-.39657 0-.78827-.15518-1.08052-.45116l-4.25903-4.31845-5.47901 2.60126c-.59423.28135-1.30244.14915-1.75357-.32988-.45115-.47902-.54086-1.19331-.22436-1.76934l2.84745-5.17464-3.83822-3.89036c-.46326-.46932-.56876-1.18481-.26314-1.76934.30924-.58453.96288-.90104 1.60804-.78826z" style="fill:#009ae5;fill-opacity:1;stroke:#fff;stroke-width:1.77784;stroke-miterlimit:4;stroke-dasharray:none;stroke-opacity:1"/><path id="path98" fill="#ffcc4d" d="M295.02524 771.7058c0 12.05551-9.7732 21.82871-21.82871 21.82871-12.05551 0-21.82871-9.7732-21.82871-21.82871 0-12.05551 9.7732-21.82871 21.82871-21.82871 12.05551 0 21.82871 9.7732 21.82871 21.82871" style="fill:url(#linearGradient111);fill-opacity:1;stroke:#fff;stroke-width:0;stroke-miterlimit:4;stroke-dasharray:none;stroke-opacity:1"/><path id="path99" fill="#664500" d="M273.19653 775.34392c-4.39363 0-7.30898-.51177-10.91435-1.2127-.82343-.15887-2.42541 0-2.42541 2.4254 0 4.85083 5.57238 10.91435 13.33976 10.91435 7.76617 0 13.33976-6.06352 13.33976-10.91435 0-2.4254-1.60198-2.58548-2.42541-2.4254-3.60537.70093-6.52072 1.2127-10.91435 1.2127z" style="fill:#3e270f;fill-opacity:1;stroke:none;stroke-width:0;stroke-miterlimit:4;stroke-dasharray:none"/><path id="path100" fill="#fff" d="M263.09334 776.75826c1.39576.34484 4.71009 1.01107 10.10319 1.01107 5.25572 0 8.6133-.63271 10.07275-.98411.47411-.12706.79993.14495.73006.5515-.27953 1.62616-2.05248 5.50132-10.64024 5.50132-8.79253 0-10.53163-3.91559-10.95271-5.48714-.11403-.42557.28827-.69946.68695-.59264z" style="stroke-width:0;stroke-miterlimit:4;stroke-dasharray:none"/><path id="path101" fill="#e95f28" d="m270.38548 753.91365-5.50811.97138-2.83773-5.15765c-.31287-.56875-.95561-.87314-1.59107-.76157-.6391.11277-1.13631.61969-1.23575 1.26l-.90346 5.81736-5.50811.97137c-.6488.11401-1.14965.63668-1.23817 1.29032-.0885.65365.25589 1.28911.85253 1.57288l4.9357 2.34296-.90709 5.83554c-.10066.65001.22922 1.29032.81614 1.58743.21708.10917.44991.16134.68155.16134.39656 0 .78826-.15518 1.08052-.4511l4.25902-4.31845 5.47901 2.60124c.59422.28135 1.30244.14916 1.75357-.32987.45114-.47902.54086-1.19329.22434-1.76933l-2.84741-5.17586 3.8382-3.89037c.46328-.46932.56877-1.18481.26317-1.76934-.308-.58453-.96168-.90104-1.60683-.78826zm5.6221 0 5.50811.97138 2.83774-5.15765c.31285-.56875.9556-.87314 1.59107-.76157.63788.11277 1.13508.61969 1.23453 1.26l.90347 5.81736 5.5081.97137c.65002.11401 1.15087.63546 1.23818 1.28911.0873.65366-.25591 1.2891-.85254 1.57288l-4.93571 2.34295.9071 5.83554c.10067.65002-.22923 1.29032-.81614 1.58744-.21708.10915-.44993.16137-.68154.16137-.39657 0-.78827-.15518-1.08052-.45116l-4.25903-4.31845-5.47901 2.60126c-.59423.28135-1.30244.14915-1.75357-.32988-.45115-.47902-.54086-1.19331-.22436-1.76934l2.84745-5.17464-3.83822-3.89036c-.46326-.46932-.56876-1.18481-.26314-1.76934.30924-.58453.96288-.90104 1.60804-.78826z" style="fill:#009ae5;fill-opacity:1;stroke:#fff;stroke-width:1.77784;stroke-miterlimit:4;stroke-dasharray:none;stroke-opacity:1"/><path id="path102" fill="#ffcc4d" d="M295.02524 771.7058c0 12.05551-9.7732 21.82871-21.82871 21.82871-12.05551 0-21.82871-9.7732-21.82871-21.82871 0-12.05551 9.7732-21.82871 21.82871-21.82871 12.05551 0 21.82871 9.7732 21.82871 21.82871" style="fill:url(#linearGradient110);fill-opacity:1;stroke:#fff;stroke-width:0;stroke-miterlimit:4;stroke-dasharray:none;stroke-opacity:1"/><path id="path103" fill="#664500" d="M273.19653 775.34392c-4.39363 0-7.30898-.51177-10.91435-1.2127-.82343-.15887-2.42541 0-2.42541 2.4254 0 4.85083 5.57238 10.91435 13.33976 10.91435 7.76617 0 13.33976-6.06352 13.33976-10.91435 0-2.4254-1.60198-2.58548-2.42541-2.4254-3.60537.70093-6.52072 1.2127-10.91435 1.2127z" style="fill:#3e270f;fill-opacity:1;stroke:none;stroke-width:0;stroke-miterlimit:4;stroke-dasharray:none"/><path id="path104" fill="#fff" d="M263.09334 776.75826c1.39576.34484 4.71009 1.01107 10.10319 1.01107 5.25572 0 8.6133-.63271 10.07275-.98411.47411-.12706.79993.14495.73006.5515-.27953 1.62616-2.05248 5.50132-10.64024 5.50132-8.79253 0-10.53163-3.91559-10.95271-5.48714-.11403-.42557.28827-.69946.68695-.59264z" style="stroke-width:0;stroke-miterlimit:4;stroke-dasharray:none"/><path id="path105" fill="#e95f28" d="m270.38548 753.91365-5.50811.97138-2.83773-5.15765c-.31287-.56875-.95561-.87314-1.59107-.76157-.6391.11277-1.13631.61969-1.23575 1.26l-.90346 5.81736-5.50811.97137c-.6488.11401-1.14965.63668-1.23817 1.29032-.0885.65365.25589 1.28911.85253 1.57288l4.9357 2.34296-.90709 5.83554c-.10066.65001.22922 1.29032.81614 1.58743.21708.10917.44991.16134.68155.16134.39656 0 .78826-.15518 1.08052-.4511l4.25902-4.31845 5.47901 2.60124c.59422.28135 1.30244.14916 1.75357-.32987.45114-.47902.54086-1.19329.22434-1.76933l-2.84741-5.17586 3.8382-3.89037c.46328-.46932.56877-1.18481.26317-1.76934-.308-.58453-.96168-.90104-1.60683-.78826zm5.6221 0 5.50811.97138 2.83774-5.15765c.31285-.56875.9556-.87314 1.59107-.76157.63788.11277 1.13508.61969 1.23453 1.26l.90347 5.81736 5.5081.97137c.65002.11401 1.15087.63546 1.23818 1.28911.0873.65366-.25591 1.2891-.85254 1.57288l-4.93571 2.34295.9071 5.83554c.10067.65002-.22923 1.29032-.81614 1.58744-.21708.10915-.44993.16137-.68154.16137-.39657 0-.78827-.15518-1.08052-.45116l-4.25903-4.31845-5.47901 2.60126c-.59423.28135-1.30244.14915-1.75357-.32988-.45115-.47902-.54086-1.19331-.22436-1.76934l2.84745-5.17464-3.83822-3.89036c-.46326-.46932-.56876-1.18481-.26314-1.76934.30924-.58453.96288-.90104 1.60804-.78826z" style="fill:#009ae5;fill-opacity:1;stroke:#fff;stroke-width:1.77784;stroke-miterlimit:4;stroke-dasharray:none;stroke-opacity:1"/><path id="path106" fill="#ffcc4d" d="M295.02524 771.7058c0 12.05551-9.7732 21.82871-21.82871 21.82871-12.05551 0-21.82871-9.7732-21.82871-21.82871 0-12.05551 9.7732-21.82871 21.82871-21.82871 12.05551 0 21.82871 9.7732 21.82871 21.82871" style="fill:url(#linearGradient109);fill-opacity:1;stroke:#fff;stroke-width:0;stroke-miterlimit:4;stroke-dasharray:none;stroke-opacity:1"/><path id="path107" fill="#664500" d="M273.19653 775.34392c-4.39363 0-7.30898-.51177-10.91435-1.2127-.82343-.15887-2.42541 0-2.42541 2.4254 0 4.85083 5.57238 10.91435 13.33976 10.91435 7.76617 0 13.33976-6.06352 13.33976-10.91435 0-2.4254-1.60198-2.58548-2.42541-2.4254-3.60537.70093-6.52072 1.2127-10.91435 1.2127z" style="fill:#3e270f;fill-opacity:1;stroke:none;stroke-width:0;stroke-miterlimit:4;stroke-dasharray:none"/><path id="path108" fill="#fff" d="M263.09334 776.75826c1.39576.34484 4.71009 1.01107 10.10319 1.01107 5.25572 0 8.6133-.63271 10.07275-.98411.47411-.12706.79993.14495.73006.5515-.27953 1.62616-2.05248 5.50132-10.64024 5.50132-8.79253 0-10.53163-3.91559-10.95271-5.48714-.11403-.42557.28827-.69946.68695-.59264z" style="stroke-width:0;stroke-miterlimit:4;stroke-dasharray:none"/><path id="path109" fill="#e95f28" d="m270.38548 753.91365-5.50811.97138-2.83773-5.15765c-.31287-.56875-.95561-.87314-1.59107-.76157-.6391.11277-1.13631.61969-1.23575 1.26l-.90346 5.81736-5.50811.97137c-.6488.11401-1.14965.63668-1.23817 1.29032-.0885.65365.25589 1.28911.85253 1.57288l4.9357 2.34296-.90709 5.83554c-.10066.65001.22922 1.29032.81614 1.58743.21708.10917.44991.16134.68155.16134.39656 0 .78826-.15518 1.08052-.4511l4.25902-4.31845 5.47901 2.60124c.59422.28135 1.30244.14916 1.75357-.32987.45114-.47902.54086-1.19329.22434-1.76933l-2.84741-5.17586 3.8382-3.89037c.46328-.46932.56877-1.18481.26317-1.76934-.308-.58453-.96168-.90104-1.60683-.78826zm5.6221 0 5.50811.97138 2.83774-5.15765c.31285-.56875.9556-.87314 1.59107-.76157.63788.11277 1.13508.61969 1.23453 1.26l.90347 5.81736 5.5081.97137c.65002.11401 1.15087.63546 1.23818 1.28911.0873.65366-.25591 1.2891-.85254 1.57288l-4.93571 2.34295.9071 5.83554c.10067.65002-.22923 1.29032-.81614 1.58744-.21708.10915-.44993.16137-.68154.16137-.39657 0-.78827-.15518-1.08052-.45116l-4.25903-4.31845-5.47901 2.60126c-.59423.28135-1.30244.14915-1.75357-.32988-.45115-.47902-.54086-1.19331-.22436-1.76934l2.84745-5.17464-3.83822-3.89036c-.46326-.46932-.56876-1.18481-.26314-1.76934.30924-.58453.96288-.90104 1.60804-.78826z" style="fill:#009ae5;fill-opacity:1;stroke:#fff;stroke-width:1.77784;stroke-miterlimit:4;stroke-dasharray:none;stroke-opacity:1"/></g></g></svg>